<mxfile host="app.diagrams.net" modified="2020-12-08T11:08:11.064Z" agent="5.0 (Windows NT 10.0; Win64; x64) AppleWebKit/537.36 (KHTML, like Gecko) Chrome/87.0.4280.88 Safari/537.36" etag="50TI3EnwizE6IAAl8gw0" version="13.11.0" type="github">
  <diagram id="93Pd-9jX-z3yuA0c7CfS" name="Page-1">
    <mxGraphModel dx="1422" dy="762" grid="1" gridSize="10" guides="1" tooltips="1" connect="1" arrows="1" fold="1" page="1" pageScale="1" pageWidth="827" pageHeight="1169" math="0" shadow="0">
      <root>
        <mxCell id="0" />
        <mxCell id="1" parent="0" />
        <mxCell id="SuCCwU2PgJYkHePNsg9u-1" value="Kubernetes" style="rounded=1;whiteSpace=wrap;html=1;verticalAlign=top;" vertex="1" parent="1">
          <mxGeometry x="80" y="40" width="570" height="240" as="geometry" />
        </mxCell>
        <mxCell id="SuCCwU2PgJYkHePNsg9u-2" value="" style="aspect=fixed;html=1;points=[];align=center;image;fontSize=12;image=img/lib/mscae/Kubernetes.svg;" vertex="1" parent="1">
          <mxGeometry x="350" y="70" width="30" height="28.8" as="geometry" />
        </mxCell>
        <mxCell id="SuCCwU2PgJYkHePNsg9u-3" value="Pod" style="rounded=1;whiteSpace=wrap;html=1;verticalAlign=top;" vertex="1" parent="1">
          <mxGeometry x="90" y="120" width="380" height="150" as="geometry" />
        </mxCell>
        <mxCell id="SuCCwU2PgJYkHePNsg9u-4" value="" style="html=1;dashed=0;whitespace=wrap;fillColor=#2875E2;strokeColor=#ffffff;points=[[0.005,0.63,0],[0.1,0.2,0],[0.9,0.2,0],[0.5,0,0],[0.995,0.63,0],[0.72,0.99,0],[0.5,1,0],[0.28,0.99,0]];shape=mxgraph.kubernetes.icon;prIcon=pod;aspect=fixed;" vertex="1" parent="1">
          <mxGeometry x="265" y="145.6" width="30" height="28.8" as="geometry" />
        </mxCell>
        <mxCell id="SuCCwU2PgJYkHePNsg9u-6" value="Application container" style="rounded=1;whiteSpace=wrap;html=1;verticalAlign=middle;" vertex="1" parent="1">
          <mxGeometry x="130" y="190" width="120" height="60" as="geometry" />
        </mxCell>
        <mxCell id="SuCCwU2PgJYkHePNsg9u-10" style="edgeStyle=orthogonalEdgeStyle;curved=1;rounded=0;orthogonalLoop=1;jettySize=auto;html=1;startArrow=classic;startFill=1;" edge="1" parent="1" source="SuCCwU2PgJYkHePNsg9u-7" target="SuCCwU2PgJYkHePNsg9u-6">
          <mxGeometry relative="1" as="geometry" />
        </mxCell>
        <mxCell id="SuCCwU2PgJYkHePNsg9u-7" value="Linkerd sidecar container" style="rounded=1;whiteSpace=wrap;html=1;verticalAlign=middle;" vertex="1" parent="1">
          <mxGeometry x="320" y="190" width="120" height="60" as="geometry" />
        </mxCell>
        <mxCell id="SuCCwU2PgJYkHePNsg9u-8" value="" style="endArrow=classic;html=1;edgeStyle=orthogonalEdgeStyle;curved=1;entryX=1;entryY=0.5;entryDx=0;entryDy=0;startArrow=classic;startFill=1;exitX=0;exitY=0.5;exitDx=0;exitDy=0;" edge="1" parent="1" source="SuCCwU2PgJYkHePNsg9u-9" target="SuCCwU2PgJYkHePNsg9u-7">
          <mxGeometry width="50" height="50" relative="1" as="geometry">
            <mxPoint x="540" y="220" as="sourcePoint" />
            <mxPoint x="720" y="270" as="targetPoint" />
          </mxGeometry>
        </mxCell>
        <mxCell id="SuCCwU2PgJYkHePNsg9u-9" value="Other Kubernetes resources" style="rounded=1;whiteSpace=wrap;html=1;" vertex="1" parent="1">
          <mxGeometry x="510" y="190" width="120" height="60" as="geometry" />
        </mxCell>
        <mxCell id="SuCCwU2PgJYkHePNsg9u-11" value="FFC Helm Library" style="rounded=1;whiteSpace=wrap;html=1;verticalAlign=top;" vertex="1" parent="1">
          <mxGeometry x="235.28" y="490" width="270" height="150" as="geometry" />
        </mxCell>
        <mxCell id="SuCCwU2PgJYkHePNsg9u-12" value="" style="shape=image;html=1;verticalAlign=top;verticalLabelPosition=bottom;labelBackgroundColor=#ffffff;imageAspect=0;aspect=fixed;image=https://cdn3.iconfinder.com/data/icons/travelling-icon-set/800/helm-128.png" vertex="1" parent="1">
          <mxGeometry x="350.28" y="520" width="30" height="30" as="geometry" />
        </mxCell>
        <mxCell id="SuCCwU2PgJYkHePNsg9u-13" value="Deployment template" style="rounded=1;whiteSpace=wrap;html=1;" vertex="1" parent="1">
          <mxGeometry x="245.28" y="570" width="120" height="60" as="geometry" />
        </mxCell>
        <mxCell id="SuCCwU2PgJYkHePNsg9u-14" value="Ingress template" style="rounded=1;whiteSpace=wrap;html=1;" vertex="1" parent="1">
          <mxGeometry x="375.28" y="570" width="120" height="60" as="geometry" />
        </mxCell>
        <mxCell id="SuCCwU2PgJYkHePNsg9u-15" value="Microservice repository" style="rounded=1;whiteSpace=wrap;html=1;verticalAlign=top;" vertex="1" parent="1">
          <mxGeometry x="565.28" y="495" width="170" height="110" as="geometry" />
        </mxCell>
        <mxCell id="SuCCwU2PgJYkHePNsg9u-16" value="Helm chart" style="rounded=1;whiteSpace=wrap;html=1;" vertex="1" parent="1">
          <mxGeometry x="590.28" y="535" width="120" height="60" as="geometry" />
        </mxCell>
        <mxCell id="SuCCwU2PgJYkHePNsg9u-17" style="edgeStyle=orthogonalEdgeStyle;curved=1;rounded=0;orthogonalLoop=1;jettySize=auto;html=1;entryX=0;entryY=0.5;entryDx=0;entryDy=0;startArrow=none;startFill=0;" edge="1" parent="1" source="SuCCwU2PgJYkHePNsg9u-11" target="SuCCwU2PgJYkHePNsg9u-16">
          <mxGeometry relative="1" as="geometry" />
        </mxCell>
        <mxCell id="SuCCwU2PgJYkHePNsg9u-20" style="edgeStyle=orthogonalEdgeStyle;curved=1;rounded=0;orthogonalLoop=1;jettySize=auto;html=1;entryX=0;entryY=0.5;entryDx=0;entryDy=0;startArrow=none;startFill=0;" edge="1" parent="1" source="SuCCwU2PgJYkHePNsg9u-19" target="SuCCwU2PgJYkHePNsg9u-13">
          <mxGeometry relative="1" as="geometry" />
        </mxCell>
        <mxCell id="SuCCwU2PgJYkHePNsg9u-19" value="" style="shape=image;verticalLabelPosition=bottom;labelBackgroundColor=#ffffff;verticalAlign=top;aspect=fixed;imageAspect=0;image=data:image/png,iVBORw0KGgoAAAANSUhEUgAAAloAAABZCAYAAADmUIptAAAa1ElEQVR4Ae1d74saydbef70ZDM0gwSCLBMMacGaDH+Ksw50Q950luayJIUjkzrITriwShpWLH2SHQQgJhPNSard1yuquqrbLac0zMDijdnXVc55z6ulTv34g/AABIAAEgAAQAAJAAAh4QeAHL6WiUCAABIAAEAACQAAIAAGC0AIJgAAQAAJAAAgAASDgCQEILU/AolggAASAABAAAkAACEBogQNAAAgAASAABIAAEPCEAISWJ2BRLBAAAkAACAABIAAEILTAASAABIAAEAACQAAIeEIAQssTsCgWCAABIAAEgAAQAAIQWuAAEAACQAAIAAEgAAQ8IQCh5QlYFAsEgAAQAAJAAAgAAQgtcAAIAAEgAASAABAAAp4QgNDyBCyKBQJAAAgAASAABIAAhBY4AASAABAAAkAACAABTwhAaHkCFsUCASAABIAAEAACQABCCxwAAkAACAABIAAEgIAnBHITWt++faMvX77Q58+faT6f4xcYgAPgADgADoAD4MDeckDoGaFrhL7Z5mdroSUqAHEFYQlxDQ6AA+AAOAAOHCoHhM7JKri2Elpfv37dW6V6qGRAuxDowAFwABwAB8ABPxwQusf1J7PQEuk0GNKPIYErcAUHwAFwABwAB4rJAaF/XH4yCS1ksoppfDgl7AIOgAPgADgADvjngEtmy1loiTFKGNG/EYExMAYHwAFwABwAB4rLAds5W85CCxPfi2t0OCRsAw6AA+AAOAAO7IYDQg/Z/DgJLWSzdmM8OAlwBgfAAXAAHAAHis8Bm6yWk9DCBPjiGx2OCRuBA+AAOAAOgAO74YDNxHgnoYVhw90YDg4CnMEBcAAcAAfAgeJzwGb40ElowejFNzpsBBuBA+AAOAAOgAO744BpnhaEFo5HwCpScAAcAAfAAXAAHMjIAQitjMDhaWB3TwPAGliDA+AAOAAO7CsHILQgtPCUAg6AA+AAOAAOgAOeOACh5QnYfVXeqDeeGsEBcAAcAAfAgfw4AKEFoYWnGHAAHAAHwAFwABzwxAEILU/A4mkgv6cBYAkswQFwABwAB/aVAx6F1pg6lYCCIO23Qp2/ciLPpx41H5WW9yvXqTvKqdxchFifGhIOjbdFqlvB6/JXhyoxdjnyJQe73rxpUqW05Hf5SZdGdwXHMqXNg59XvhMEVD67dn+yLbT/Wdjl02tqlJe2LJUb9PqTxTUpeO5rh4B6f69299tH9Z+m6YDlZ/vcL7L2Pe1vxM8DEVoaURee0rAwHZ9fEh90cCyq0GL1WgaK8Nlww8H2wjaz11Q/igJhlbo3rp1N0f3P1J5raq9EVvxgWG7TNYTUfvIZdstgN799FBMi8YNzFHMgtLbYR2tC/bMmNU+U358qVIqBzitDwUmyDJZ5lW0K0jaf8/rts3LfuXBggqZANn3b2MzWVjo03sMgf/Oyum7Lk9c0c24D53fx/M/gozddqsYxKQr+WQSn4T7OuPou75am/x1S96xBtYclaiLTnkGg+LbRrsrnPpx3H3X9f4oOWOiCGpUlv8v7nrvsq5iQ3G1GK4EgXjrOoj9R+yXxLgm183t54UsCN106QlavZee8nxktOZtTotNBFmyK7n+mNskYrITWd5HRQlzaeTxziTE7/e59cOE+7mmKBdk+/06E1pzmhZ4jcjiE2nlgYoKmQBmt+ZwOYo7W4HSdYd5GXBTa/yyCpzxH61GTet/FHC3EpZ3Hs52KJwvex/W5Dy7cxz1dMLH/7vcjtGLC2IOzOyc7HELtDrOVHQsstHaORe4cn9HrJ9FQWUDVlzff8dBJEeOG7zohLu2/D+fFkfvgwn3cMy+8eDkQWrl3ThxgO0c9HELZtTcLRgnXQGj5Ez/y3KSjOr2eJdigED6EuuXve4hL+WO6rzy9Dy7cxz392AdCqxCdxOEQaueBCULLm9C6PivHk+BLPw+83WfnnCmEz/sJ6PliibiUL577YPOkOt4HF+7jnknt3+79wxRauhVf0uqFxaonzcz/dKeSjd6gfhSs7yZ0/VuLag9DKkVL4I9KFFYb1Hk3ptvoe6mvctkBpa+umFL/JIw7QNGW8MlrurHZqmJR1zbVq1JdBS4PQqrW23T5ceLQmcoTnPncqNu/r+iyVaNyuN57KXhQplrrkq4njoS9m9HoXYeatTKFD9bDWKLdpeMy1R77WKXqWMf5nJgjqVxb/Z9uV4t7Tq6pd97kXIvt16LOuxHNbHiQysVVPe4GdBrjXab2R4v6ReXum/8xsc45tlwhufle5Xzs4CsRpiJW5OV/GnvMRjR8qSlfxCPhKycd6v0x0cckG5sl8HqNkRQXIy6YXqdX1HmyEvSlCjXfFHh4Osf4KccLOS5MPl5SS8S61f57izgXVqlx3qfxPxqba/FdrhbtvWxTs16l8FiJ91HsPOlQfzSz5HFSH3VL4yg+y3V+WKPW77b9X1K7ku6Z9H3D+znaT9UKiz7vrE5VFetSSGG1TjV5exiN9vC4j1YCKCzo8Q5cbVzi/zZBQ9PYxPIWZJaNvgwotx+7VDveDMLrwBNQ+LRPU60zyO2Xy04TWhqR9bRHE4vOdfqfjrGuot7h4w5dTeW6Jf2tEVp3ExqeSVsB6ALzUZUuLDeLnbxvUSUSr7qyNt7LyBejfZIwWL8vB07Z/vLfckBN59q63MX37iY0aFWYuJbLZX8f16j78dYyeCr3kXDYakuHffM/FnPS/TnC2lVo5e9/ku2E353XKLTylQQfsbHZhr+pWLkKrTFdPFLLCOn0g9Q2iZNOPpPzdXnbT44Xi7jwzzV1H/MH6Ihr8WvYoL5NbHa0ZfjYZjNlTR81GVDLtOl49WKLjZo198xo17ztF3PRxm6q32i0x34KrUFroeKFkpd/44yTaLimsTF4WmPKRq9Q67zJA9viqTHcyLoIJ6m8MD39ymUnCS2NyDqxEXFzmr5tUCgb+6hE5VpjuYfZ0xqVpSeRhVMfNy0cWhZaATXejOiiqgRNoeZVhS/qETZpYJjvM3qhEWwRxsKuap0X7UvoRLT2zDeYD1qca0veSRm9IMmuhnrcaXAVbX2wup+cNYxsfBRS8+10C7Elb2eQYUuHffO/T+KBSWc//p4cP1yElh//W/EmiR+yrzCOJPiI1macvzHnErFq0cDF1z5dSKc6SLHjpFjD1D7sJwutSqtDTeWBvRQK7in4C/9+dGHei08jtEqyzXSx88cu3aTaTu6jytQZ9qkRSjYTWbKEOtslG3RxUL5nxvg599X/zWk+7W/YTfSfSxwS7CdsqNEe+ym0Eggjk1vXWHuhJRMspNr5kGWVbseXVJdJ+OCUhgl1Wt7TRKhNkVV+NrDIlM1pPuqwrJDIWA03hu9uafxbgwnH0k89Q/lcaAXy03SlST2Wkr6l6194Rqb6a/Iw5ex9kwtDUd5/p5tDHrMbunpRX28/ECR0IqnY6xw8r/dMdjXdZ0YDdZj4p+7m8OtsRP2zGsdMTF63efrVYZPXlg5K2cX1P5MdxOec79ZCy5v/iTpNqf9UyYIc16jz4UYzhHxL0/EV9c47DltTbMtfA64T3UawAZWKdIKCJ/sxX4gekFYjCiw+/zOmyyeyjUvmjN+gQ/WzLvU+jGgy1We3b/8eUodl0EwPVDIXShRK/Vv5pEcj+cF5MqQ2y1RmzVLK98wotDzZT8QDlo09WuqAGxmHRfwTw7h9OpUzfxBaaYGBG32R+Tkq0+lAnzmY/bsuDfWUqZM6XMbL5kNMW4is+Q11f5RE4aNOahp3+orXOX1eDu94FniIc/CeDZjoXIvXG+rKGa+fevqMy92QTiUnDgx1nrNhnwMTWh9OmXiq/HK9KTYlMaM+eWfbINXflg6sc9EEmzVXdH7IfSRf/9PdT32P891OaPn0vzlxfxXD/jZDQGq70v7nmPO4lHad7WcaoXhUoYu8zreVfCOdW0n19Wc/5gsroZX48MyOwAqo/MtIHztd23snZ64DClIziZwLy3gfUuNNwgPztEeNeI5nQEEOJ0q488+f/W5+lUdcQmoYRhCYvTWxDxmtmLwq0QzgCueQnlTSScLLXn93U2RVnl8ZMk1S0PjYlo4wMD2xiOu444XP0w4P5h2PcDyTELh+Lj2ZJRxHwwWqxTEnByu0uOAJEvDiHYhyzYNTGljM32NleNzSwRRsWD1iv4v4zH0kCPL0v+geaa+c71ZCy6v/cV8NvJzdyjFfx6U0nBw/E/PLXjYWk4jLtRb1xvoMTDo3HO+5wa2E6z3aj/mCyGSlzuWd0eu69MCs6aiz4sNi8qOLlOFDzgWj/83nJK9aDo6absPKCxvxezrzz5v9uO/ZrMhm9tbYD0Irdkpu9IrxqWIordoKKG2obD7nZS8JpRFZhoyG6mzMiY7tDsFl16Q6Hu94wtYwNdsi6jY+l4YPE4QDI2Td4ly9QxVad31qSMOx6fyROgp52C8Iqf2n9FnM5eT35OBoE0BUzqX9z2yrCTZp16o+kq//JeOxrhPnu43QYr6Ut//92WbZzvorfWZ9XX+bNqrf0cUl9TuH+79P+zFfqKSPNAgbDp9J87V+7NLEwpdtbG8Tk5flcC6Y/W9O8w/SqRKZpnXwe7oKLW/2Y32OXYxl9tbEPgitmNCuRncJzGrZmyKr+sI1XTzhw4apaeF1sJywlGjaKiKX9q3LT3f+a2pLk0IrLyyWejPSH9DQIetIHdp116OGlEmtv7Jdvj2n+TZbOsR+kmxrU7BJ54bqI8n3WZaTNz9dy/PrfzcvpIeWwNdmsq6Ym2yyT5/7tZ+rL9gLIgXj2ZRGH3p0ed5aLn5aHNa8PsC58UgScAkPvzqhZSV6lDl4VtewOLIN//zZbyZPsbHM1JnsDaEVG97V6C6BmZcdltcbRYohufJZ2hCe4lhxfUfUebhON5cerVYZKo7WVP+vyffetdDiOFg55qEKLbZyKM0Oqv0Vseqw3xMbtq2aViGp9zX/bwo2hyW0/Pofy3A87NAo9nuzHdJxlq/P4I9e6iHXaVd/+7Wfqy+4Cq3bcY+asoiSHr6W86vWfUP8f95CSztS42K/bfjnz36uthD+ZrI3hFYcOFyNnl1oNX5Tls6GDeptrBQ0EZbXN3YmG4eLv5PWwbu0z1TX1edZnoAgtJSJsVntwhcr1P/tkAmLfSTdzqZgky4AOJ/NIjwrDkltcC2P1zdv/2NYpnaQSe2xeZ+3wYy5TZn78h3edq/20wwlqb7g0rlP3ypbD8XxXCOu5M9SecTxsONClmtkfmxzPb82T/uxh5xUzNZtYf6qsTeEVtyJcMOZieYSmDVlK8tSA9vN6uL6ckWfJ9GWQcClfWvCqQGE/a8Me5kxntPBrjrcdUZLnjiaZRJ9zLtkW5uCDePCRnkaH9n4jnzvvPnpWp5f/2NYWgb7dHxl7KK/XTGPrjuE1x3aT9PxqrayFlp/XbDtfIKjCjVfDmn0P/2Dk3W5mbJT2/Jnm+v92W/0izTqY+l7zF819obQioO5q9FdArO+bHW5vtjq4Nr6GAaX+2cJjD7K5zhYzS861IzW+6a0PUiFLj5Z2shpteu6zMHP67ka2Yaq12WpnUT0vynYRN/Tv3JumEV43vx0Lc/1+2b8ZFxYsLecJyJfb/e3K+ZubbCrw32V6dd+rr5gK4hkPxYiK31bIbsFSks7ZeACi82mLY50ds5wz7i/9mc/ZgvLRS4me0NoxYZzNbqLoZPLHskr9USa17SvVFzfOQ1OpFRx0r5V0vfdAp9L+3ROpHuPzy9K315CXK/uw+MwaVxq92w0pN7vPRrqNkWVvueGj6hfsl2NZSm7ZluJTlFXlgmrUtdmyJnt02OxpUZGTEzBJh0TVyzz5qd7eT79j03IzbC6NB3ryDddMY+uO4xXn/Zz9QXWuSdmUXj8tNmU267cbLGMcfSoQX3XrWa2iZ9zf/0fa5fNQhR1dAoZrbQA4Rp0XAJzWtlTunourzAy7bmybgMjxDY7hWs7Vpf2retkCvC9nyRxaJiQvSFCnZcQT2nwTEoDL3ZmznPTxzS7mjDhe7UEBiyWuE75fjtW18xpq3MNtdzQt821c+FcccUyb366l+fV/5T5jOaTHPQ24Rir3+Edd24bZcqcKfA+Wj7t5+oLdoKI+4hxC5K7G7qsrzPZ6Xv18bLNGWU+59NG9G1y0fWenL/e7Dfq2O9POVXmW4tkCYQWNxQ3vKvRXQKzqWw1c2Mptlimwi0bxtuuw8Wlfbrr9e8x5wiSj264eVVn+wgt56A5ZrTYnlNrgVf91WJbCbmzSPzbZFc9BhH2TACJDWHP07f4uHlZk4YbA7Kb0C4LOptNbdPrHNVd9+raufAyXLHMm58ZyvPqf8rmtBb84Hja2FFZIl9u07VzViLtPptHTInhrsLsDO/Rfq6+YCe0uDAO0vYhnAzoVFqVvoifiZkyYUM3/5u+aUhHo5Wd9/NbctXtnhv89mY/BeekcyKnV8pRRKs+BkIrLSi4Gt0lMFuUfTeiDjs/ytzxCuKN2X47AQXHNWq/G9E0Ya7X7H9junrXpXa9Y9jJ16V9abgqn836/OiGsEbdP6WJnLMR9U6kLNSjinQwrZvQYhvayatvNI6w4cSJ4kpuj4Vd08pRjyMSnal6rpi4foEJz3oGSc6v3k8Wm6IjVT/P8X/XzoVj7opl3vzMVp4//xMLQZSJz4uMbJv67JzRiI9ZzjpUsp3RWXx/q7u3L89z6zztGGJGVJfVq5KVixbsFOmsQ1/2c/UFO6GlbCMQhFT/bcw2kr6djqjXqrJzbSPcXTJa1X+NNOdpir34JjQ85+euZjsKTHDE1ecVfnns/5g9FkfP9WkS96m3NPnQoVp8lFxIlUfSqSia/sXfHC3tafEhheykefkkbHEadvSbdkr8DXUfR9/jryVpp+1APt0+LjekWmI2w9XoLoHZsmxNGtKU5dicx7TO3AQPJHwU3IMgbWsHQWiX9m06AO9E+efqGW6LQLCoq5TmFsLouEn9qby6xE1o8U0fJVwsN3eN2/CpSzWJQ2ueKvWV8Y6/X6Nu2kR3dXw/EoRRWRt2Cyh4eEoDqwOleVak+jKPTN4++h/nX2xXJjKz8n0zGx13bJENBRc27Gjyv2WdE5fyy/GNle3mI/PZgJpxhyH5SCmKHTLH7eoc46vMQ4xxcfU/ZicbW7p8x4/9fAmt+Z/ysWsre0VckM8eXMWRyhNpZMAhoxXZqnRcpfpqL8ZGrUysj7WdiuEzfm7M45U4vI3/qedECjwjnEvSPYKAxGbjt28a69GGnQotNmmXVywyYvJrmkPzgJhchv6eyePalmIodnpej+RyhdM7lL3R8RrOfBP1iZ4yZKEZddhJr8aVTC7tcwls4ru3dH0uH9qpsVW1TVcLMSHXw7ETEef6bWCSPFwZdxCxjVftYqtrNHVNwnjxvkWdP/WoKZ/+nlKeyHiN4ycrA+7yuYa5bekg28MVC5GlHSv7gkVtcPCRhX14PZLLjco3vW5Rnhf/W9f39qMQ+rZYW/BN5fen19SwKj8tLq/ru/ajMV0oWXpxht7pB9137/E9D/bzJrTmcxr9yjNK2j7wqEKt9xO+PU6q0LqidtmWY0J0hFQ7H9LEZqjZd/z0YL8Fhyc9aqb5xVFIjVerh1dZ70Bo3Vegd+tEpv9p871STAfsRoFzNqLhyzbVqyGFiupeZLeqdWqedan/x40+LRyV46Uj2wykYnfjlvyUJJ4Yqg3qvJPT4XIH6N6JiE6qXl49lZdr1BbBh7Vzs14bn/sOFIv63NLkj0tq16sb2Y/FU+XZJV1tDOmk1/36+XoINr8tHWR7OATmlXhMFkRuPpJ/xpW3K7meKZjn6n/qfVb8eFqj8rGcZVo9aT+sUeOsm31l7d2Ern/TxI7FU3yV6qLsLAdCT6+o82TFw1KFmm/yyKqq2OT0f4728ym0RHy6Hfepc1KjspzFOipRudakzu/XawEkx65UobXEUAw9ij6kKeLQccgzWIv4XKfWeZ9GMwfM5TqkPERqBaPLAqgc7Rf3AULEiUPRpaxxKSxTrXVJ1/KK73sTWq6dGb7vLgCAGTBL4gCbKOpvS4c4ICXVY2/el4eo0x7IHDqYvWk72nQ4PIYti2hLf3O0EGQgAsCBe+MAW9H45DXNYIt0W6inFrxBh1XEDgt1Ai/3kQMQWuiA0jsg4LOH+OxuS4d9DHraOsurM12GK+Afe+gfECtaHwCXvXEZQgvk8kYuOPM9BXRZNHje0uEgbKxurWK5EexBtB3xD/EPHPDOAQgtkMw7ydAh3ZPgArdpPr+i7kmHen+MaaqZwHv795DaVXlSf0jN99K+bsAQ8QEcAAe25ACE1pYAQkRARIADReYAX80Y74Uj9raSV2ytVkOFJ32aIiagYwUHwIEcOQChlSOY6HCL3OGibt8nPxWhlbS8fLEv0BVEFuIhBAY4kDsHchVanz9/zr2C32fnAFEAu4MDeXFgdnNFvfPW5v5yYl+ghzVquu4LhI4IcR4cAAcsOSB0kennB9MX5M+/fPkC8C3Bz6sTQTkQJOAAOAAOgAPgQDE5IHSR6cdJaH379g1CC0ILHAAHwAFwABwAB8CB+ZyELjL9OAktURiGD4upqvG0A7uAA+AAOAAOgAO744DNsKHQTc5CC1mt3RkRDgOswQFwABwAB8CBYnLAJpuVSWiJi75+/YqUIdLG4AA4AA6AA+AAOPBdckDoINsf54xWVDAmxhdTYePJB3YBB8ABcAAcAAf8ccBmAnyklcRrZqElLkZmy58h4STAFhwAB8ABcAAcKBYHXDJZkdjaSmiJQsQYJSbIF4sIcEzYAxwAB8ABcAAcyI8DQufYzsmKBFb0urXQigoSFRDpNIiu/AwLJwGW4AA4AA6AA+DA/XBA6Bmha7IKrEgf5Sa0ogLxCgSAABAAAkAACAABILBEAEILTAACQAAIAAEgAASAgCcEILQ8AYtigQAQAAJAAAgAASAAoQUOAAEgAASAABAAAkDAEwIQWp6ARbFAAAgAASAABIAAEIDQAgeAABAAAkAACAABIOAJAQgtT8CiWCAABIAAEAACQAAIQGiBA0AACAABIAAEgAAQ8IQAhJYnYFEsEAACQAAIAAEgAAQgtMABIAAEgAAQAAJAAAh4QgBCyxOwKBYIAAEgAASAABAAAhBa4AAQAAJAAAgAASAABDwhAKHlCVgUCwSAABAAAkAACACB/wf9Vggosob5QgAAAABJRU5ErkJggg==;" vertex="1" parent="1">
          <mxGeometry x="24.72" y="700" width="270.56" height="40" as="geometry" />
        </mxCell>
        <mxCell id="SuCCwU2PgJYkHePNsg9u-22" style="edgeStyle=orthogonalEdgeStyle;curved=1;rounded=0;orthogonalLoop=1;jettySize=auto;html=1;entryX=0.5;entryY=1;entryDx=0;entryDy=0;startArrow=none;startFill=0;" edge="1" parent="1" source="SuCCwU2PgJYkHePNsg9u-21" target="SuCCwU2PgJYkHePNsg9u-14">
          <mxGeometry relative="1" as="geometry" />
        </mxCell>
        <mxCell id="SuCCwU2PgJYkHePNsg9u-21" value="" style="shape=image;verticalLabelPosition=bottom;labelBackgroundColor=#ffffff;verticalAlign=top;aspect=fixed;imageAspect=0;image=data:image/png,iVBORw0KGgoAAAANSUhEUgAABxEAAAC3CAYAAADdE6CKAAAgAElEQVR4Aey967N1RXXvn//ivM+LvDinTlUqValc6lTOKRNPQijNiQlRoigqJUGOog8IiCAXw0XuiMgdERFBbhLyIIKIPBwBEUTuyMP9IndUlPhy/uqz8hvL7+qne/aca/Xae+29v7tq15xrXvoy+tOju8fo7vl7v3n7t53/LQMzYAbMgBkwA2bADJgBM2AGzIAZMANmwAyYATNgBsyAGTADZsAMmAEzsHUZ6JK/3zMMWxcGl73L3gyYATNgBsyAGTADZsAMmAEzYAbMgBkwA2bADJgBM2AGzIAZMANmAAbSPzsRvRLTK1HNgBkwA2bADJgBM2AGzIAZMANmwAyYATNgBsyAGTADZsAMmAEzYAa2OAN2Im5xADybwLMJzIAZMANmwAyYATNgBsyAGTADZsAMmAEzYAbMgBkwA2bADJgBM2AGUgbsRLQT0TMJzIAZMANmwAyYATNgBsyAGTADZsAMmAEzYAbMgBkwA2bADJgBM2AGzMAMA3YiGogZIFIvs3975oEZMANmwAyYATNgBsyAGTADZsAMmAEzYAbMgBkwA2bADJgBM2AGth4DdiLaiWgnohkwA2bADJgBM2AGzIAZMANmwAyYATNgBsyAGTADZsAMmAEzYAbMgBmYYcBORAMxA4RnEmy9mQQuc5e5GTADZsAMmAEzYAbMgBkwA2bADJgBM2AGzIAZMANmwAyYATOQMmAnop2IdiKaATNgBsyAGTADZsAMmAEzYAbMgBkwA2bADJgBM2AGzIAZMANmwAyYgRkG7EQ0EDNApF5m//bMAzNgBsyAGTADZsAMmAEzYAbMgBkwA2bADJgBM2AGzIAZMANmwAxsPQbsRLQT0U5EM2AGzIAZMANmwAyYATNgBsyAGTADZsAMmAEzYAbMgBkwA2bADJgBMzDDgJ2IBmIGCM8k2HozCVzmLnMzYAbMgBkwA2bADJgBM2AGzIAZMANmwAyYATNgBsyAGTADZiBlwE5EOxHtRDQDZsAMmAEzYAbMgBkwA2bADJgBM2AGzIAZMANmwAyYATNgBsyAGTADMwzYiWggZoBIvcz+7ZkHZsAMmAEzYAbMgBkwA2bADJgBM2AGzIAZMANmwAyYATNgBsyAGdh6DNiJaCeinYhmwAyYATNgBsyAGTADZsAMmAEzYAbMgBkwA2bADJgBM2AGzIAZMANmYIYBOxENxAwQnkmw9WYSuMxd5mbADJgBM2AGzIAZMANmwAyYATNgBsyAGTADZsAMmAEzYAbMQMqAnYh2ItqJaAbMgBkwA2bADJgBM2AGzIAZMANmwAyYATNgBsyAGTADZsAMmAEzYAZmGLAT0UDMAJF6mf3bMw/MgBkwA2bADJgBM2AGzIAZMANmwAyYATNgBsyAGTADZsAMmAEzsPUYsBPRTkQ7Ec2AGTADZsAMmAEzYAbMgBkwA2bADJgBM2AGzIAZMANmwAyYATNgBszADAN2IhqIGSA8k2DrzSRwmbvMzYAZMANmwAyYATNgBszAxmDghZ+/1u3x0SO6//Lf3tV9+ogvda+/8SuP5zymNwNmwAyYATNgBsyAGTADZmBpDNiJaLiWBpcNERvDEOFycjmZATNgBsyAGTADZsAMmIGNwYCdiBujnFyfXE5mwAyYATNgBsyAGTADm4UBOxHtRLQT0QyYATNgBsyAGTADZsAMmAEzYAY2AAN2ItoYtVmMUc6HWTYDZsAMmAEzYAbMwMZgwE7Et3/b/fo3/9Hd//DO7kvnX9XdeOuPujd/8ZYH0JUBtGW2MSq4FbHLyQyYgWDg1dd/0V153a3duV/7dvf4k8+7nau0cyG3rXDEIP21K74z+ed8K+R5s+bxrV//R7fjrvsnfVqO/N6sed0K+XLddBue49xORHOR48LXzIUZMANmwAyYATNgBszAshiwE/Ht33a33fHT7o/+6iOT70rwbYkvX3jVxLG4LKFvhnAtMyul1hzzPRe+60Id5Dsvq2LIVkPNKqWrtfwd3uau09Svg44+a9rO/e0/H9Q9tvO5lXYuXPTN7ZP0/vf/uVf3w7sfXOm0rlf9YdITk58+fsgp3Z/utu+0fOnTvOfDh3UnnnVZ9+prv+iV3XMvvNJ9cP9jpu/ufcCx3Ysvv977znrl1/HW9dTl197S/f4f/9OkPDlee8MOl+UGnTDgulnnfavqBO2b+puI5mSr1gPn2+ybATNgBsyAGTADZmDtGLAT8e3fdsd/6dKp8QwHxvs+dqQNaBWDi2W2dpV0qyhEOxHN1FZhfT3y+cCjT3b/6/98Yqatu+Lbt6yscwEnVji2cJCxinI95LbKcT706FPdnvseNVOm9GH0f8jEByYF6Ts4nm6/6wHLu9IPWkU2tB2NMt125Je7N978lctzA5an66b7RSU9Yyei2Six4etmwwyYATNgBsyAGTADZmAZDNiJ+PZvu1jtEAaXg48521uaVowtlpkVUmuFpMbPIYbv1vGXwlNDzSqlq5TezX79Jw/8rPvKRdd0rJayo2O4Hnrq2ZcmK9OinVv11X03/eDu6Wqqq//9NjtAkjY5XaH0B3+2Z/cvB53UnXL25ZP/w48/v/u7Dx46mRSFDuvTC/c9+Hj357vvN3Uk/vV7P909uvPZ3nf6wvO94fWytT771Vtvd/966sXTsqS+n3Held5dI6k/G4VR183hdQn2WbF+6jlXdPtsO6FjksVGKed50ql9U69EHM7JPLL2O5avGTADZsAMmAEzYAbMgBn4bepD7H5vKwqFFQ7HnX5JhxGOlQ+bfeDZoowtMyvQFhxpGHYiminloXSuq6BZpVF6ztd35Qmn6+4fOHiyffd5X/+37pdv/WYl5ccWnUzmwQHClpw4QF2es+WpE3k+8PFjuieeeXFuGfGN42u27+j+4t37T/4555plPivzZchjGfoMB/MBnzu9+6//4/2TI7+XkXaHuXw+XDeHy1j7kKy6Z/X9ZmbUTsThbGxmDpw3c2AGzIAZMANmwAyYATOwVgykXsQt6URcK2E7HldsM1BmQA1Aq7TiTw01q5SurcrSMozuW1WWq5pvXX3jVVS76szX3vhl98nDTp84WVd9RemqMrYq6bI+25XvVSkbp2NjlY32Ie1E3Fhl57rm8jIDZsAMmAEzYAbMgBkwA6vPgJ2IG3SLI1eu1a9cLqNxZaQGoFVy1tmJOK4cl829je6rVR6ty5uVNzgOWYXIFps4FFvHsdHDs07aPHXA+mzzlOVG1ysbPf3ah7QT0fVqo/Ps9JthM2AGzIAZMANmwAyYgVVjwE5EOxFtoDUDK8GAGoDsRHRjWWosbXTf3Gzotxv9feJ8WbNNH0ZyHK2sSGRlYqm++HpehqsiF+uz1S6fVeHE6ahzon1IOxHr8jJTlpEZMANmwAyYATNgBsyAGTADYxhYihNRB3L/ctBJ3SuvvTn5vs4jjz/THXbcud2f7rbvxPjFNwj3PuDY7ns77une+vWw7+8wA//8S6/v9tjniO73//ifJuFgSCv9Y6BJBfKNq28qPk84uXfSMPitqwGOOunC7ldvvT3Jx133PtJ94rOnTb47RXh/9Fcfmfz+8U8fzX5niO9SnXL25dM0/fV7P93d//DOXdIdaWClxpcvvGr6PN9Deub5l4vPx3uLHFdNZmlekAky+8IpF3fveM9/GldLTMT13PfUwqCnTiy+/3jZNTfPMPeuvQ7pzv7qtd1Lr7xelTts/+SBn03Yj7TB7t/vfVh36jlXdI8/+Xw1DM0vz/MeaaQORX7gjO+HHX78+R3fPtN3SudRn96/39FTXgmPcP/ug4d22478cnf9TT8cFFYpjqHXVW+o/NP3+V7aSWddNs039QX56nOUbcilVp+Vbc41HM61nke64O2xnc91J5x56ZQ3ZLb/oad2pXqehsvvl199Y8LWnvseNS1L9OPHDzmlu/HWH3XkNfeeXmvFrMqMuImDMrnyultn2Ifhk7/yzW7Md7aefeGVSX2B+dDbhIOTaMdd9xf1v5ZNlOfQY5SVyio9R/eSbxwx2i5RHrQzlH36Tuk39Zy8kKe/ed+2KX+kl7zutf8xk3r79HNr830/5TYns3mNrOjDy6+9pfvwAcdNdcYi+iyV59X/fttEdoR50w/uHiz/CIc6laaP/FMmlA3lPeRbkKFnlVl0LPkmfOQQceaOwe6f7Pax7p77H5s8S9rOveS6jvYjyoRzrtXC0zjUifjpI740qad6v3au70c69Dik7qRxtGiDQ2akJaeLNc7QezxLmeq9OI/wlHV06vbv3Tnpe0b7Sf1Elz/5zM+z4UR4L778eved7981+Yb2ez925JR/0hB6m/vozXhHj5EelfXQ874yUVnkwqvJUtMY58iJdoC2KHQjYVOP6GfR36LM4/n0qPpnkf5xGm7r35pPOFD5kdePfvr47pyLr+1efS1f31u3m63qpvanPvTJY6d9VfQarEcbhZ6lbaqNw4Jdtk++696HJ+UefWPtv9AfG6PPFukf17jXskzPh+pNGL/5th9379zjU5P6vkrfEtY6NjQ/reuPw7PRyQyYATNgBsyAGTADZsAMbB0Glu5ExPCBYYZBeBhs0sEcg9jTzr2i17DHQO7q7bfNGDPScHK/GWSmQMdgOPc813LvpGHwOx3A4cg7+qSLpkbyNHzyj/ExZ3hhMI7DJt7hvGRUvPOeh6fGK4ya37/93l3ymEvvItdWUWaRH+SEUQuOQn5DjjnDYxgl4Pb5F1/tdtz504nxoBTeP37k8A7neKQlPb740mvd4ced15suuLjkWzf28k+4GIUw/gzJZ81oiBGdOEt1UvM7tD6keR/7W41eJYMpBr+aA5F41bBXS7+ynZOb1nPSRT3HSFaSHeWDg7nPUYEOwEESq4lU3nr+wf2P6X72xHNFvshrK2ZVZsjhgUee6DAOanr0/G//+aAOg2dfOSMDHPDoKX03PUffUVfSsLRs0ndqv0sMRRw7n3qh22fbCb3pwniOwyGnsyMcjpQRZVVLkzoz9P1lnCu3uXSNTQsyQBbqUMiFC/+nn3dl0ZHSl1d0OU4LwkWeOG36ntd7sPbNa75XTR9h53R/hDVUzyI/6nCJDWWX+GptCROqhk4GUkfDPMZjfT9XhrW6E7KKY6s2WGXGeYSfO4be6yvPCC9Yr+k0nrvjxw9l463VJ5Uj/YKHHn1ql3AiPfrs0PO+MlFZ5MKryTKVLxPh0O+5sPQafZuc3iY8lReMLtI/TtPX6vfQfPbJvnW72apupv2pWr+FcmX8Uhp3KLvkmYlqONaUBz0v1QEtu0X7xzXuNT3p+VC9qd/nJQzat2tv2LFL3dZ8rdV5Wsco87WK2/FsHUORy9plbQbMgBkwA2bADJgBMxAMLN2JiFFmv4NPng40/+Ld+3fHnPzVieF79w8cPL3O7NZbb/9JcQCEo0wN0RjccCpixGMVnxo2iYPVM7fcfk92RR+DX97R/30PPHGaFgamIaC+ow7gMDKwIjAGquSNcMgr6YnrYczKhcvMbmbxxrOXXn3TLgZKjKrkPQazGOhLRsxcHPNeW1WZYTjWVZw4djCEMIOeFXTbjjhzxumG0wBmYAMnYSqPMEqw+uRL5181dRQRLqtqiQvjgzqQPnfcudkVY/Ch7GNwwflE3LDL6qdwCHLsK0tWueJoDzZ4ntW4pDc4xhEDd9yrGQ1xZkfchMlqGFiNsFjNyEpE8jm0PqSyHPs7NXohPw0jdSD2ObHUsFdLvxrHcnLTeo5MDvnC2dNyQO8gK+JI9Rmz1zX9en7N9h1TfUY5wCm8wuaZF1w9Y5yrrTQmbspwUWZVZjhy0FWhZ6g3Ofb7DHEwC+/BmdZN6udxZ3x9Rm/nJk7k9A4rgKIeHHT0WVNmg904TlZDvJZfPYLjHyNnhIP+/vpV353UTeph6Fju1yZqsCJTHYg8T72PdJx41mWT1SyscunT/8pHi3NWziCDSAfH406/ZPKdQfI1Ji20McglypL3yQ/sEy5HbYO5z/U+R3oujz+8+8GOvgDvX/TN7cX6k76btgO8n5YDTMdKI1hPw+A3BnQ45H3+ya/qWdoA1f19bKhe+dThZ0zrO+9Tb5AP9UplygQJ6o2mDb3As/p/xAnnT+WEHmRyid7Xc+qQhsc5q2HRM/qchtnnNEnDSmWv9XxsG6wyy+lijTv0HuVUKs8Ijz4YEzuCUWTO6ivqJo4wyjHKnLqfc15rO0A4vE8akCHh8J6ygU5IV2svS5/lGFE9WZOlyjXta5NX6gT5pI+gfVRkltPbhKfyatE/1jS2OMfJq3nRfJJXypYy5npffWjdbraqm9qfom/CKuxgHN63ff7MCbfpRKHcuAN5R10iDCbtRZ3RupT2jQ/43OlFpyR8LNo/TrlHD4bzm3YEnaY6Ts+ZcPLmL3+9i25M2dJ8h/xgI31uPX5rHevri61H2hynDU1mwAyYATNgBsyAGTADZmDzMbB0J2IMuhhofuWia2acLTgF1BAUWx6loGHQCSMt4TDITbc/feKZF2eceGOMJsSnA8WhA0QdwEU+GVjjwNT0sZ0rDqN4hu1w0jzGbzXgYOTVbU0x5Oo2phjQ13Pm6SrITI3OGITSbS2RGc6cMHjUDOfKY5QXRsbUGHjvAz+bOll22/PAXVaLpU4/DDZwEOXMkbRhgCJNxPXnu+/XMetZn4lzVjoRD8/l8hnPccSo+8ab5RnJbMHK9laEhVyQD2nRMOIcjtfqe1tq9EqNdqkDsTbLXQ17tfqsHOf0Rq6eYyxmdTXpClmlacRpkZvVr8bLkvxh5cgTL5zqjH899eJdnAsRbytmVWbBPnJm9U7ExVHZ160a9RnOCS/qXYlZDKY4ZiK+IY4jzS9xpPHWfsMZujPixHGj5cj7cI8ej/SzTTDf6suF/e3v3D4NK1fP9R3q5VjHmr6/6LmyXNOFGle6+p02OJUZvy++/IapI4W2mq0dNZy+c3QmnFMu8PLozmcHv6uTIoj3tPO+la176Dm2Ic5tW8k9bV9hn5VKqW6kLVBHIxML6H+keVO9EqzBum5nS9jfvfVHU4fgu/c6dJe0Ke8RzphjTqelaeW3roBK9W/u+bjWsg1WmdXSrXIp6QENL2SG4xYGIv0cdz79Qve+/39ygm7XqM/glGeiG3UoZSKeY3JChEN86Ia4VzoOyUfp3b7rGm5NlhEOcgknTKkeoRtx3uBcC5le8I3rd5GJ6pp4Dn26SP840tniyCSxSFeuDdA46ANpn17vtW43New4n6duan8q8kmZMslO+6LkC33OPZ4rtXW5uoQDMu0f0AdHfxMWYTIxKvIRx9b94whX8zymfYv3c0fVbyFHJiTknl3ra1rH7ETcfAaatebJ8ZkhM2AGzIAZMANmwAyYgRoDa+JEZCCZc/yROL4VhCGawZl+t0MTzuztGOAymzY1XsazDFbjuc8ee86gWabxrg6QMb7E9b6jDuBIf8khQBisvIkBaF/a0ln9+33m5Ml30whDDbm11Ul96W51bxVkpltb8i2tXN7UOE0Z9Bn21PCGo4jVNznjETOYKcco09SIqVsgYVRUw3GaRpXjGedduYsxjufVUMUs8Fya0nBLv9UgxTf8co6u0rvLvK4GIDViU9+1nGsORNKo8qrVZ5U/52kec/V8+813ZMtJJzzkjNEpi+jFkkGa7wjyrUoY63OqtGJWZUac6Jicc4Q8MOEj2M/VJ5iKbSmRQ9+qTOVxyBaWmt+03qVll/ut7UTfSgnyqdyV9Iumh+9K5eJclWvK8lAjK/VPV7H0MQvLOBSCjZIjPScPnIZhfO5zmqfv4tzF8E2ctP99K7rTd/W3xo9sdAKPPsc53zakbY585pzfqld4ruRgxqAfjvSczlC+Ir4xx5xOS/PDb62Hqn9zz+q1IXUk1Xs5nUGYKrNaulUuJT2g4cEG3xIu9R/VqVSLW/OfnmtfjzSm99PfQ/KRvjPkt4Y7JD/UXfofwRaruvomPDBBIPrbOceT6hrCbNE/HpLvIc9oX6Nv8taQsFq2m6X45qmbmkfkT1mhp3Jlmur4XP3UukR4tJ2lrWzju7Y8lxvvtO4fh9w0z0Pbt3i3dEReOA2DdSaQlPJdCmNZ17WO2Ylog8+yOHO4ZssMmAEzYAbMgBkwA2YgGFgTJyJbyOQGriRCB0Elw5UOXi+58saiUUZXa2GU09m2keHSUeMYYvhJ084As894qUaA2mAv3VINo6xuY4oxpmQ0K+VvGdfXW2ZqMGC7snRGtOYZowgGDf77VoKq4e2q639QdPAQtj6blgdxDImPcJTbkiP9rnsfnq5WwSnJygnN35hzjQ9DCyvLxry/rGe1PEMXoDfQHyFL8k76a2lQw16tPivHnKdhq46q1XPeVWP0Fd++ZSY8VkCx2oj85FYdpXFrWDnDHs8rh4swqzLDmdPnRKnJTCeH1HSxOuRzTpRUJprftN6lz6a/UwcoBv/0Gf2t9S5nDOVZLSPSVnJSaLjrda4sDzWyats1xMmrTr2hcSAPDNzUCxhg9cdQGanButa29oWpTJcmc+j76ozOxavh1Sb9jGVayyQXt6Zz6LmGGfq39q7q7BZtsMqM8774h8hMw6OelvqhxKPP1uLuS5fKEYdD364AhDMkH33xle5puEPyw/bubN1LHeybtBLx6UQR2sVUF6uuqbWbKrNWPEc6c0dtc8gv34eed2JWy3Yzl1auqXzmqZvksW8cRhzaR2ZiQJoWrR81faZ9TPps6fbArfvHkVbVR2Panni/78hKZHbxKE366nt3Wfe0jq1FvVlWPhyujVJmwAyYATNgBsyAGTADZmBjMLB0J2JtIKeDoNLgWAevfU7Ehx97uvvLfzhgYgSpGa5TQDUOjC/p/dzvIWmP99QIMGSwp99HxGkYK5JqxpiIby2O6y0zNRjUDJg4czCk8D/UiZgaxYbKFKNhbHc3xCmiK1HgF47TuNKVL+QXw1dqnEnfy/3GkMqWViEP+Dr9vCsnqyXX00Ci5YkueOb5l2cciKWVcbk8qmGvVp+VY87T8MbUc95VY1wat66qLjmlNH5d1ZIz7PGsGovnZZZwWspM6xvGe81T7lyNiqnjNX1+kfxSXzBqwn5uG+I0LnX65oyhPI/DlNUsUZ9wtLHt4ZDvLaXxLfu3slxrmyMtyiCrk2o6InXU9n3rOOKgXGLL8jGrF9O4So72iKd01HByDpHce8oGK7HSLa9rekXDHMv02P6ExlU61zBLfbH0XdXZLdrg1jIbE16at77f1AEcCnff9+jkO6p85zj+iTN21xjS1xtb9n3p0nsaLmnSe7lznfgxJN2EoXo77ZurrqnxpOz1xZ37zqt+5y7O+d5n3+4PpF1XUlLn2ZWBCVV9juac3Fq2m7nwuabyqckywtC6OUTX64SZXBmMqUu6ZX4a9zL6x/PmOd7bqEetY7ky26j5cro3hgHJ5eRyMgNmwAyYATNgBszA1mNgQzgRGaQzyMdI27edqRoFSt9XLEGuA2SML6Xn9LoO4GoDezUCDB3s6fcRw0D9uePOXZmVLustMwx5GLVDNqXtBlOnWd/qIzW8zeuQUUcFxkTkFAbG3BFu99r/mEk+UoOL8gZD8b2iyDP1gtUD515yXbfzqReqBv4IDwfd3gf853cRIyyO79rrkMmWbzix552ZH3GMParRa/cPHDyzhSIOnJpRUONradgbU89JQ1/c6lxjO7AcD3qNco3yKemlFszW0q2y5VzrPufpfd3i8LjTL6nmk2cin7nwNPxF8qsTTVhtc92Nt/emjfuxxWZJx6OH+CYf2x9HHjjinN/v4JMn3w9jEoDmYb3OleU+XaPpq5W1PhvnujqzVp68o6v6Sno8wtajTsCoObH0vfRcdc9QufQZygl/jNzGMj1PfyLNc/pbwyyxnr7Tug1uLbMx4aV5y/1m9R2Td2BN63rpfEhfb2zZ59KVu6bhDqmDfe1WLnyu9U2YUV1T40nZ65OZhlmSOdeH1GH6haede8V0bBHh8a1Hxhm0w+iFUt7j+hi5zcujyqcmy0jXWJ2mceTKYEza++JeVv+YfPfFG3LZTEetD7ky20x5dV62noHKZe4yNwNmwAyYATNgBszA6jGwIZyI+m0wnCa5bUP5dhcrlTAE8AxGyTHA6QAZ48uQd3UAVxvY1wboufgYEPMdpTBuvOM9n+geevSpQWnLhdf62irIjFUurPZDRrktGDFy8j02DPo8k/t2j8pFDW8Yh/Te0HPlIspu6LFm/MJwzarByE8aLqt5dtx1/yBnInz1GURx5PHtv7Ez84fKKX1ODUDUpyuvu3WaT/KLUz19p/S7pWFPy7NWz0lPX9xaZ9Kyq/0u6aUWzNbSncpZ88F5el/TVMtXej8XnoavYY+to6qH03hrv2tlT9isZokJLxoeDsbPf/GCjtVrmpe1PleWa7om0qYO4VrZxDs1PuI5jvo9rpp+1vc4nyc/aRj8VsP2ULmovsq9M0YGY5lWjlsZjzXMGusqw5ZtcGuZjQlP85Q7L0280Xqeng8pm7Fln0tb7pqGixxyz+g1neDCu3qvdN7X1mndrPGk7PXJTMNMZa2/c/Uxlwf6h/SXYhW0hsE5/Q76W/S7cu9zrU8G6Tvz8qjyqcky4qzpp3gujhpHrgzGpL0v7qFlmJYFv2vl2hdv5HMzHVWWuTLbTHl1XlbPgOQycZmYATNgBsyAGTADZmDrMbAhnIiAiSMonEUYaffZdkJ39fbbJs5CtjBi9nAMOg86+qxBM4gVeB0gDzWg6ACuNrCvDdA1LZxj3MBZmhqkvRJxtpLi4NLViBh9jjn5qx2rDa+/6YfdtiPOnMoQWbJiKJW1/lbD21gHRYSjXASTQ481I0nEgbGEmfJHnnjh1NEWcZBPZtgPdf7x3B0/fmiyLWZuhcUhXzi7YwVGxL2soxqAqE98o0nrAE5ittwaEn9Lw56WZ62ek7a+uFXPRHkNPZb0Ugtma+lOZa754Dy9r2kamr94LlufP/IAACAASURBVBeehq9hj62jqocjvqHHIWVPOpn0gp6hjUr1N+3UkO09Nb8tz5XlobqmVta59OlKxNr2tPc9+Ph0O9gh3yLU+OZx/un7ca66Z6hcdCVibhvqMXIby7Ry3Mp4rGEOZR35tWyDW8tsTHjBQu6Io5u+V+iKd+7xqUn/IudcUjkOKZuxZZ9LX+6ahosccs/otb52S5/Tc12JmG63rbqmxtNYmWkaWpzT32YnB7Zn3XPfo6blHOXNDhCkMRfXGLnNy6PKpybLSONYnaZx5Lgdk/a+uJWLkO/QY00398UbctlMR5Vlrsw2U16dl9mxr+VheZgBM2AGzIAZMANmwAysBwMbwomIkQpH4ZCB5meO+UrHFmdjhakDZIwvQ97XAVxtYF8boKfxsZ0kA2byzJEVGpxjlM6txEzfX4vfqyAzVgfECtQ+PlgJhNxqW3Sq4W2sgyJk/tobv+w+edjp07IrGZ/i+UWP1A++5bPfZ06e1hEc7j+8+8FBHGv8yOeRx5/pDj/uvBkHyJgtBjW8MedqAIr6lNb93GrTXBwtDXtj6jlp4dtQwWL6nSgcSHFvqJ7J5U+vtWCW8FrKTGWAntD0Lnq+SH75bl3o0mBs0fT0vY/znckMOB2i3Fn1gvOr771l3VOWawbZSIOuUEodBfGMHvkWJN/7JL+0V3wHVO/rOcZ7HIc8y3clcSjq/dq56gzCmNdBq9/pqqU50vSzJ56bfFeTeHPfy9T2sVYHxjI9tj8Rae47aphj6kbLNri1zMaEN1Q21Bv6Z6XnVY5DDPtjy74Ub3pdw63xx7v6vV6+6UydSMNMf/dNFlBdU+NprMzSdLT+jX6++PIbZiYnlj6l0LLdLOVD5VOTZYShunGIrte+CduLo5sjLI5j6pK2s7S3+r3YZfaPx+ZZ87cRz7WODdE1GzGPTrONY2bADJgBM2AGzIAZMANmYHUY2BBORP3W4VcuuqY7/9LrJ9+Bi1UebPPJAP+uex+pOolK8OkAGeNL6Tm9rgO42sBejQC1wZ4a5cgj+cdoFd/mGru1Y6QZgzZbRGL4YUVXzaEW75WO6y0zHExHn3TRxACNkYSVqV845eIOHsKA/fd7HzbZjuqpZ18aVKZqeJvXiYjxJVZHUn7zhlOSe+k68oh4yT/lXHq2dp08XHr1TRM5EhZOAZwDtfe4Py9nagDS+sQqEN1S8R8/cnh1W1/4jpXLfd9HJa0YTMkj/zlj65h6rlszEn+6cnKMHhgia55pwSzhtDSGElboZ5hMDZJD85Z7TvM71mmkjA0xrObin+ca3/PE0QRjOS5KYSI3dD91mdWNsFh6dsh1ZXlo/rUuDXGA7nz6hY6tkMnru/c6tHcLV/RyOHVLRvpavlQ3/OupF3e/euvtuWSkDpEhKyLZ6jn0Rk7HaPuY0yuaL2V6SHuxDD2iYar+1XSm563bYF3ZxqqwNL74rX0kyqAkszFlEGHnjqoba/03lWPtWeLSsh+rz3JpjWsabo0/3lGnOH3NR3c+W5Q/z7MK82MHfnFSB/j28z33PzbzvOqaGk9jZRZ5XPZRJ/PttueBExmlcSobyDy9r7/n5VHlU5NlxDemraOdickc1CfqYYQTxzFpZwJb9L/SviNxRT+1df9Y87zIN3Ijz3p89bVfTJhv2ZfR8Oc51zo2RNfME4ffWR2DjcvCZWEGzIAZMANmwAyYATOw3gysvBNRVzWkM1pbCk8HyDVDQMSrA7jawF6NAH2DvdSpwQpMDHXEee0NO6aG+aErsiKtzKwOgw9GAgbvi65oXG+ZqdErN3M68j7mqIa3kmFySHh8kzOcKAd87vQ12Q6UdM1TJqX8qHGsj1l9fxHO1ACU1qe0XrD6FEOyxq3nWt9Kjg/CDCd0OAOQn4bD+Zh6fuc9D0+3l/34IafsUu7EyXXiw8jGNs1pfGN/t2JWy7umA5WznMzUOYSzqm/lztj86irHIc6eNPyLvrl96vzBmBn6NX2u5W9lm7Ifqluuu/H2jlXUwWeN+1qaleWhTkTqdHwzrNZuIEvdNaDm1GOFM3kj3LHfMY68qsF63gk2hKXh1NpXdWKV0l6rI5F+jmPrsOq3obpZ48uda5ip/s09z7XWbbDqoJJTmVVN/3LQSdM60VefxpRBKY9c13T1yZvJApq2vmcjvkX1WYSTHpWpnI5On9cJMMhU+57pszhSdKvxXFunuqbGk7I3RGZpepb1W/NQ0pfKxqLtZikfKp+aLCMMbXNKaY9nH9v5XMeWrZQ7R37HvTgOrUu69S+6kXFLhBHHZfWP4ZKxAPngv8UOGrRp515y3bQdPvCos7qfv/LGLnmKvK3lUflcpXqzljJwXDakmQEzYAbMgBkwA2bADJiBtWNg5Z2I6UCYbRuXAYgOkGuGgIhfB3C1gb0aAUqDPQbAF3zj+ukAODUYM5iNGbwMkDHs6jZBka7cUWf4xwC7tkokF45eW2+ZqUzZPnSebWw1P5yr4W2ooT8Ng98Y3vc+4NhpWX7q8DO6x598vsguznKM2Bhlc+E9+czPJ2Xdt3oUFnBYRvnmZpNP0vbSax2rhfqcJzi71BgzdFXjIpxpXc/VJzXck0eMtSX+9XtlOccH7+kKxJBZztg6tJ4/8MgTHaskCYs4WUGcK0udDMA38lhBi+Et9yw6AcP0D354X3ElaCtmWxpDSfeXL7xqyiKGSVbZlPjlOuwPqXM8g3yRM04jHLHEp/KDbVbGwJRe51wNpoRz7Glf613hR13YcedPs6yx6o3tf1mlkMYTv0kb3xyNleSlFS3xfByV4eCTY98KrXi3dFSWa4ZlDYNVkCpzVrSnZQnDOGjjOfL70KNPFeWiDvWSo1/TUDpXvYF8yBd1L6ffKAvKH32ahkc4fE85ZE1dpk6nz6V6tvQNZm0fc3pFwx1bh7XtK/UnNPwh5xpmTv/mwtB3WrTB6pTMOYSpa+HQjnLiWNIbY8ogl7+4hi5htR1xse3ujrvun+EC9qkTsKfpGlI2i+qzSGN6VKZq/MW7pAW5kwfqMTt/pG0T9Z4tmuM5jjn5q66p8aQcDZFZpHfeI3mCpVz7EGGm+fzQJ4+drESL+3Ek71HmyDyu547z8qjyqcky4lW92KfrU8c3Y5C0PSXMIWlHrjATbQBb7L/86q4Ot9b948hzmk7aoJ9kxozIhutDdtfQySVRzrRzGud6nWsdW4t6s175dLxrZxSyrC1rM2AGzIAZMANmwAyYgT4GVt6JyGBWHWcM4v7mfdsmxnqMfB/99PHdiWddNpk1fdp53+q2f+/OidE9NwhGEBh7mVXKLGv93/fAE6eGgPd+7MiZezyH0SQVpA7gagN7NQKUBnvfv/3eqmEmdaT0zRbX9KoBIAbCf/kPB3QPP/b0LvnS91ZZZs+/+OpkW9vIDyt2/u6Dh07ZwEkUZXzu1749+eYPhus0f/pbDW85w5g+WzvH8JgaFd+11yHdMSd/dZou0sjWf2F0KcUZ5Rd5PPz486dhwD8OS12xxG8MNbk0htGLOIlb5YS89jv45CmHyLY0Mz0XdqQzyoTjUM7U6FWqT7qtL2GT9lKZ6ooz8rrX/sdMdMW2z585zR/XkSVbXxEe6U/zpfWcZ3D88Q7Ov1tuv2dypE6H/AnztHOvyDoxCBtD23FnfH2qbwgTQyxyD17hkPQSF/dLOoPwWjEbXBBfC2MoxsP/e+ipM/kkP8obdQF9GwbpWrzkl3D1+5+kl22LeRf5sSqGeEoMEQbtRMTJ+5TZHvscMQ0jwqGt4X7JCKvMEidlFukgDPJHnSeM+Me5WmqfSFv8p9zF+0O+S0gYfOMseIojEwNwghAWK2GPOOF3eoRnzrzg6kn7GWmII3WMcos0cGTb6NBDHINV7iHbG265c5qXCEePapxd1ChL+xoraSKNKWtwEVtdl/Rsql9SLpi4EPWceNiilgkZmq84V12Y0yvxHEeYiXSX0qbPD+lP6PPpOf2ZYCKOsBBbEMIIrMQ9jvSbUmd56zYYpzyrV0MWyBqZE7/KHr7YujyeK8lsTBmkMtLf6vAmTk2Xtifc+8N37D1lpE9vR/iL6jOcQNRbLSvO0ashH/q36f3ct0pxvPNcvMdR6xH6LCZDcI/6ccm3bsxuIaz6q08XI4dFeQ5ZDj1q2tAJOo4g/+iz0BWRz9yKOuJr3W62qpvaNpEH6gyssoKUfgvxHHnihTPt4CFfOLvYn9K6RLnT1uEwZFUh/zAY21gTH/qYci2VScv+scbxxDMvTsYBpCHKLvp+9JU/fMBxkzwPqZuEq/mOMIf0UzRNyzpXjofmZ1lpcbi/67tZFpaFGTADZsAMmAEzYAbMwGZlYOWdiAgex5mu6oqBXN8R4zXGlbTgdNDV9356Lzdo1LAWNZKkxss+Q7M6GxnMD9mW9L4HH58ajyNvpRUUG0VmpJPVTWq8jryVjhj/zrn42l1m10eexxpz473S8e77Hu323PeoGaNcKW2UZc6wR9g5Q0YpHNgvrdAjLDV6lcKI66S9bzVRmu9FOFOjV199Yga5GjJLhq+c4yPyxRFucCapARM5p3nCGcuqYH23dE6Y37zme0UHYoRNXlndqQ6JUphcx4Hzxpu7rqojvFbMKhc5fRdp56g85mQWz7740mvd5794wdRJ3pdH7g11kMFkrPoshdnHEE48VjC+c49PDSrXkiNcmS2lI65T1jhicivkQl56TB0qhIMhuOQw0Xc51zKKNNSOJWcp4VGfcNygp/rCQaas3OxzlGreqMu176+lecv93vnUC7s4l0vp7JMhbA3R2aU+RqRN5d9XR3h+bB1WnTWP8VjjK8kovV6qT63b4HSiVJoOnBN8/1r1Vak8x5RBlFvpiMxTR3WaNpigfUJW3BtaNovoM2UhTU/f7xKT6CfdvrEUBm3dVf+264rkkF/L/nGE2eqoaSvlL66TTyYMlfSZctii3WxVN8e2TfRHeKckY61LIZvSkUk+6ONSWHG9Vf84wosjK4XTCXxpWofWzVyftlR3Iv61OirHQ/OzVmlzPDacmQEzYAbMgBkwA2bADJiBzcfAhnAisk0lM2YZBGLAZLYrBuT415VcOlDMbfepgy59tnaeMw5oWCUDW1QaNfSkg710JnppC6AIC2OGbhWIYRnHYtzPHXkHwy6ywpi97Ygzex1NGobmsyYnvb9MmUX6dAtJ5MB3M4MLjjqbXNPGSjEM2RFOHNWAUzJMxrNDjxjlCItvPMXKJtISLOMgYlY4HJTCZOstZn0zYz7lnfKEv1PPuWLiECsZuyJsVo+w8oeVOazcVEdWpAlnwV33PrzLloURRum4CGdq9KrVJ3WkI0tWD+ScM6z6u+r6H0xWmYXzg5VhZ3/12ukWllo3S8Yhwv7pQzunZaBcwR2z29nysa8MczJ79oVXuvMvvb57/35Hz6wIwHDJ7Hlm9zPBIN06UsNqxWxrY2ikESbYQhI+KVflLVaBsEUnRscauxEmR5xayDxWFmidYvU65VoLD+bY+lJXqREOaaRuHHXShZNVGyXjKjqErWZZtcWqNOWCcChH6iwTPdCjmv4h57R9rMwiPTjbrtm+o5qnCHeM0Ze08t/nRCRcLUtWf0adIp/IEFmWZBXp4ojTMCYC1L6bqO/VzqknOHHQX6onVa+xtWxOV2jYqrO1TNHfhE0cfXWSsFT+Jb0ScY6tw6qz0v5EhNl31Pii7GvHkk5u3QaTbuo2jqxYxUv5sVKYesQ9nlF9VWqrx5RBn7ziHnWYtiPShczgQ5nQ/tKYsplXnykLtTLU+zUmo23CoR46e0xbp3IosRNy1TyMkVm8P/ZIv2D7zXdMVhzST0R/qWwoU/QZ/bLgrRSHcki9Kj3H9SE8tqqb2p+i/qC7ohzJK+eULf0Pyrov3WnakU8qszG6UeNSXTtv/1jDi3P4I2/KL3mGRcZPrFiMZ/uOtHmsqme3CvhHL8FP3ztrdU/r2FrUm7XKl+PZfMYml6nL1AyYATNgBsyAGTADm4OBpTgRW8LBQDi+U8RA+NKrbyoa7xjsX3fj7TMzUEvfhWuZRoe1PpWB2fthiOaIYTdXFhgBWJWKowmGMKAM/S5ZLjxfW5/yttwtdzOwORiIrYbZPpNtTV2uG7Nc3QZvzHJzfdv85aZOxNrkkCE8DHGADgnHz7Rjz07EdrI0l5alGTADZsAMmAEzYAbMgBmoM7DyTkRm+Ybjh5VcQ2aAsi1PzCquzQw2JHVIVlFGOAb1W5lX//ttVUP0S6+83n3ok8dO2SitXljF/DpNG5NTl5vLzQzMMsD2wOwSQBvNap/aSh/Lb1Z+qyIPt8GrWS6rwofTsb582Im4vvJfC/7tRNz8ZbwWHDkOc2QGzIAZMANmwAyYATMwlIGVdyLq7NchDkG2l2MLunAi1rZsGiooP7dalUoNJJT1EIfgk8/8vHv3XodO2GgxM9tMrBYTLg+XhxlYfQZu+sHd04lBQyZ/uExXs0zdBq9mubi+uFxgQOtni/6ujsU8rloNxuxEXI1ysM51OZgBM2AGzIAZMANmwAxsFQZW3ol4xbdvmToEP/DxY3q/Y8E3iviGCd+twLH057vv19334OPVFWpbpbA3Uz7fePNXHd8SDGfxSWdd1rtKldUufLcsnvcKGCv5zVQfnBfzvBEYYCcBdhRAD/P92qeefcnt89sbk123wRuz3DaCnnAaF2fLTsTFZbjqHNqJuPnLeNUZdPrMoBkwA2bADJgBM2AGthYDK+9EfGznc93f/vNBU+cPDsJtnz+z45tKt9x+z+T/xlt/1J16zhXd3+992PQ5tkC97JqbO7bcMtSbE+prb9gxXdGCUZrvIh5z8le7q7ffNmWD88OPP7/70932nbLBc/c/vNNcbFDjtevz5qzPLleXqxnYWAy4Dd5Y5eX6tXXKy07EzV/WdiJu/jK2znYZmwEzYAbMgBkwA2bADKwSAyvvRERYd937yIwjMVaTlY7v3ONT3Xdv/VHHysRVErbT0rby//Kt33SXfOvG7g/+bM+pg7DERFzf7zMndzimXRZty8LytDzNgBkwA1uLAbfBW6u8Xb83TnnbibhxymreemUn4uYv43nZ8HtmwwyYATNgBsyAGTADZmAZDGwIJyIZx1jFd+/43uHfffDQGccRqw53/8DBk3usTmTwvAxhOczVrIQvv/pGd+V1t3ZsUfo379s241Bk5er79zu6O/OCqyerD+1YXs0ydN1yuZgBM2AGNiYDboM3Zrm5vm3ecrMTcfOWbdRbOxE3fxlHWfvosjYDZsAMmAEzYAbMgBlYBQY2jBNxFYTlNLjSmgEzYAbMgBkwA2bADJgBM2AGzIAZMANmwAyYATNgBsyAGTADZsAMbAUG7ET0d+G8atMMmAEzYAbMgBkwA2bADJgBM2AGzIAZMANmwAyYATNgBsyAGTADZsAMzDBgJ6KBmAFiK3jOnUfPEDEDZsAMmAEzYAbMgBkwA2bADJgBM2AGzIAZMANmwAyYATNgBsxAPwN2ItqJaCeiGTADZsAMmAEzYAbMgBkwA2bADJgBM2AGzIAZMANmwAyYATNgBsyAGZhhwE5EAzEDhL3u/V53y8fyMQNmwAyYATNgBsyAGTADZsAMmAEzYAbMgBkwA2bADJgBM2AGtgIDdiLaiWgnohkwA2bADJgBM2AGzIAZMANmwAyYATNgBsyAGTADZsAMmAEzYAbMgBmYYcBORAMxA8RW8Jw7j54hYgbMgBkwA2bADJgBM2AGzIAZMANmwAyYATNgBsyAGTADZsAMmIF+BuxEtBPRTkQzYAbMgBkwA2bADJgBM2AGzIAZMANmwAyYATNgBsyAGTADZsAMmAEzMMOAnYgGYgYIe937ve6Wj+VjBsyAGTADZsAMmAEzYAbMgBkwA2bADJgBM2AGzIAZMANmwAxsBQbsRLQT0U5EM2AGzIAZMANmwAyYATNgBsyAGTADZsAMmAEzYAbMgBkwA2bADJgBMzDDgJ2IBmIGiK3gOXcePUPEDJgBM2AGzIAZMANmwAyYATNgBsyAGTADZsAMmAEzYAbMgBkwA/0M2IloJ6KdiGbADJgBM2AGzIAZMANmwAyYATNgBsyAGTADZsAMmAEzYAbMgBkwA2ZghgE7EQ3EDBD2uvd73S0fy8cMmAEzYAbMgBkwA2bADJgBM2AGzIAZMANmwAyYATNgBsyAGdgKDNiJaCeinYhmwAyYATNgBsyAGTADZsAMmAEzYAbMgBkwA2bADJgBM2AGzIAZMANmYIYBOxENxAwQW8Fz7jx6hogZMANmwAyYATNgBsyAGTADZsAMmAEzYAbMgBkwA2bADJgBM2AG+hmwE9FORDsRzYAZMANmwAyYATNgBsyAGTADZsAMmAEzYAbMgBkwA2bADJgBM2AGzMAMA3YiGogZIOx17/e6Wz6WjxkwA2bADJgBM2AGzIAZMANmwAyYATNgBsyAGTADZsAMmAEzsBUYsBPRTkQ7Ec2AGTADZsAMmAEzYAbMgBkwA2bADJgBM2AGzIAZMANmwAyYATNgBszADAN2IhqIGSC2gufcefQMETNgBsyAGTADZsAMmAEzYAbMgBkwA2bADJgBM2AGzIAZMANmwAz0M2Anop2IdiKaATNgBsyAGTADZsAMmAEzYAbMgBkwA2bADJgBM2AGzIAZMANmwAyYgRkG7EQ0EDNA2Ove73W3fCwfM2AGzIAZMANmwAyYATNgBsyAGTADZsAMmAEzYAbMgBkwA2ZgKzBgJ6KdiHYimgEzYAbMgBkwA2bADJgBM2AGzIAZMANmwAyYATNgBsyAGTADZsAMmIEZBuxENBAzQGwFz7nz6BkiZsAMmAEzYAbMgBkwA2bADJgBM2AGzIAZMANmwAyYATNgBsyAGehnwE5EOxHtRDQDZsAMmAEzYAbMgBkwA2bADJgBM2AGzIAZMANmwAyYATNgBsyAGTADMwzYiWggZoCw173f6275WD5mwAyYATNgBsyAGTADZsAMmAEzYAbMgBkwA2bADJgBM2AGzMBWYMBORDsR7UQ0A2bADJgBM2AGzIAZMANmwAyYATNgBsyAGTADZsAMmAEzYAbMgBkwAzMM2IloIGaA2Aqec+fRM0TMgBkwA2bADJgBM2AGzIAZMANmwAyYATNgBsyAGTADZsAMmAEz0M+AnYh2ItqJaAbMgBkwA2bADJgBMzAHAyeddVn3X/7bu7pPH/Gl7vU3fmUZziFDD9b6B2uWz+aSz8OPPd395T8cMNEbt93xU+sM6wwzYAbMgBkwA2ZgZRlwv2Vz9UM9rnB5LsKAnYhurFa2sVoEbL9rxWgGzIAZMANmYBgDL/z8te5rV3xn8s+55TZMbm/+8tfdZ489Z+IMOO70S7pf/+Y/LLs16le/+vovuiuvu7U792vf7h5/8nnLfY3kbt0wTDf0yemuex/u/vv/3Kv7i3fv3z3wyBNm1+yaATNgBsyAGTADK8uA+y2L9/36+oWle4wr7394Z/el86/qbrz1R92bv3hrZRkp5cHX14edZcrdTkQ3VlZEW4gBVkmwWoJVE//r/3yie+DRJ7d8+X/j6psm8kAmnC9T4a562CoL5JH+H/+lS1daPjg/9vjoEZN0c1wlZ4jKdqtztur1YKul77kXXuk+uP8x0/q+9wHHdi++/HrTur7KdXOR8n7ltTe7fznopInszvv6vzWV2SLp2uzv0pc56Oizpsz+7T8f1D228znLfwv1Zzcy4xiC6F+9e69Duyef+bm5NbdmwAysNAPah0vHhvy2TWHzGYmHtrHYkij/HBdcW7Xx+NB8LfO5jSgz91vWp46zW8Uf/dVHpvXryxde5Qmr7i+se3/BTkRDuO4QLrORdtizDZ6diLPygA87d34nE5VFbjBgJ+LvZDVWt6hs7UScX45j5e7n67JmgKL1/ff/+J+62+96oGnfQA1QG9mg8Nav/6P7yQM/69CF5OMP/mzPqew4xwF70Te3d8++8EpT+ZnjWY5zBpgrvn2LZe4xzUoy8PKrb0xWzX78kFO6d7xn1tjK76NOurBDD//yrd+sZPqtf2b1j+VheWw1BrQPp/3FOLcTcevWiVx/LLjguJH7/Muq5xtBZu63rEadZryp9el9Hzuy+UTfZXHucFeDoWWUg52IHnB7wLpkBlipcN2Nt3eHH3/+5H89v5lkJ+KuytzOnd/J5GdPPNfdcvs9M/9s0RedlzFOxFoHOcKMY4vviekgd9UGLevJGU6Pr1x0zcTB0do5tIyOicP8XZ1cC1nc9+Dj3Z/vvt+0nv/1ez/dPbrz2aZ9g1Wum0NlvPOpF7r9PnPyVE6hu3LHVdM/Q/O4UZ576tmXuvd8+LBpWbA15A/vfrApsxtFFk7n2urLMfLGKfjNa77X/elu+05ZzemLuOYJRqtblmPK3c+6HDcbA2yhx/hBx4jYNugvor82mxPxV2+9PelTnHrOFd0+207oHnr0KfcvCvYy7Fw/+OF9M2zQlv3Jbh+bsOH+8K76cJVl5n7LruW1nvqcianRR+R48DFne0vTgi5az3Jay7hXwa5nJ+IWh3Atgd+qcakzpYWjZBE52om4a8dgPZ07i5TlWr2r8rETcVd+hpaDypHzoe+1eE5nsbHaoUWYDmN+FlZNdnxv4ZrtOybf5+IbXZy3/rbfRnci8j2KMJbpYC7OcWJtO+LM7l17HWKjyRr1qzFo7v6Bgyfb/LCVrFdxbR6dtGo6cp70wOMpZ18+Y/wJfRHH937syG6/g0+eblW11n2DefLld1zPzIAZgAHt1202J6LtJYsxrrYvOxGHyXIVZOZ+y7CyWss2kO+/M6Gf3W749IgnNKxeGa0lD8S1CnY9OxHXyNix1nA5vtVRMNopsBNxdcol6sh6OnciDat8VPnM60Tc98ATJ8Y0DGqlf2brv/nLXy/k4NIB7aoNWlSOa20oXIXOxioz7rQtXy+vct2slT9b+ugKRL5jtv3mOybbyXzn+3dNnASsiuPbkoTFXoNd8AAAIABJREFUgG/HXfd3r772i4X0WS1dvr98bi1jy3heBtANbA2Nw5Djv556cffwY09PDO/xHdVLrrxxoiPYJvmRx5+ZbJU8b3x+z6yaATOwlgxov85ORLOn7Knta9XG45rOVTpfBZm53+J6vEp1wmnJ87gKdj07Ee1EtJFryQxop8BOxLwyXM9GYj2dO+uZ76Fxq3zmdSKuldNMB7SrNmhROa6VPKKMV6GzEWnxcfV04FqUySrXzVr+Wb0bzgC+RfH0cy9N+004AXASfOiTx3YvvfL69HotTN/fmvXA5b41yl1XsaAfLr36punqbiYbxFa83/7O7dYZSx6Duc5tjTrncl77ctZ+nZ2Iay//VWZebV+rNh5fVbmtt8zcb3EdXtW64XTNsrkKdj07ET148QB2yQxop8BOxFkluAqNwno6d1Yh/7U0qHzsRJyfX5WjnYjzy7HGq++vpmzV2LTRDApslRnbD6Y6MDry2478cvfGm79yf2rJ/SnX79Ws3y6X2XJ58pmfd6xYRm+kxvUYEzAxwd8onpWbObI8zMDGYUD7dame2+jlqA6VzZa3tSibaOdoAzdan38t5JOLY71l5n7LxtG9OX58beuUX9ge0K/r9ZmiLedERNBhDIoZoHwsevv37uw+fMBx0+9S/Olu+3Ynf+Wb0+2pShVTFX4YhvmWEN/POey4czvCIb4/+quPdJ/47Gnd//vRg9PZqKUwuf74k893fMz57/c+bDoDnjBI4+XX3tKxXVbp/e/ffu80HwxSL7vm5t4477zn4enzxMH7hM1Hpdl+J+TFOddK8cb1q//9tuk7a/nxVzqz5196fff+/Y6e5oe0s4f0333w0A4j3/U3/bCafvLBnuCw8snDTp+WIeHsue9RkziIK/KrR+1Qh9zGHIMhDbPlealTDG8nnHlp9473fGIuXknjvDLT/LGl08+eeG7CLOXF945iBQhy/Jv3beu+cMrFky2feFbfLZ1HfeQ93o/yiPJkBUlcGyL/Z194pTv7q9fO1E3kButsYVdLlzKiBum0DEjf3gcc291wy53r+q0nZBLy0fSW5B3Xc7ox7i1yRPehA1Vfkz7K4OOHnNL9+e77TdK71oOW1pxFG0A+YCHKAB3NKobDjz8/a4DU8op3hh7XWma0vTfe+qNJuUVbSVqjntOOlr7Nd9MP7p7qBuTx1LO/Wx1W4uvRnc9Ov2vH9+34XXqWLSxpO9H5IX/SCGOkmbSX3o3r0clTucIv4e6xzxHT9PMdPXRK30q2KFc1ZkTfBT0RaaQeoMsZDEY60qPWzRwbmt703b7fLetmi/akL61j7n3p/Kum9Y/vUgSTOA1pp5DhGN2oca9Cv0XT04KzZdRNbTdzzGq90PwMOafN5iP1aR8BXUt/kn4l7X4trAiHvn/0pei/0I+nP49Or4XR6r729dg685XX3pxwy5aZOjaJfsb3dtxT7btQJ9EdF31z+0QPan9K8/nYzuemdSTNT/AVE+p2PvVCt/+hp050oX6PlTp2820/nsiO8uY7MHff92hVfov2z9L0zvubfuxuex440Q3k64FHnpimHcch8hrDbMjtT3b7WHfP/Y9NwqKNOveS66bfYUVOtCVc6xsjkidYXbSvHe1I5APmvnzhVZPxF1yhKyMdlPMBnzt90k4hD/pw8NQn3xZtcISvfY2om6FH4Pijnz6+O+fia4tbULe2HZCuF19+vWPrOOTEtzHRN5Gm6GtwH7lGPoYceZ736Ktovyr6yEPDXKU2OM33vP3j+x58fDpGYKzA7zTs9DflhP6hbPj28Q/vfrD3nWgHFm1P0nS0+E2dyo2fqAOMYeG8Vi81Hdouhx7Q+6Xz0GfIlPPSc1yPfjTPkr6+Z5E943Dyou0T78L/XvsfM2mLdTeJCE/j4fkx/9GeRVi5Ywt9FmnUPvq8Y4pcGltei/YBOWp6x8QR9XweW2gunkXrZot2M5euuNZCZoQV/ad37vGpSbsy9JvhrfstkS+Oi9RNDSfOF+3rqe7S8RvMqT00+sg5Wxx1j3Y2dAV940hf6UjZnHHeldN3OI8xZbyj+jHC1qOmN94ZemzVBrTQZ0PTXHsu5EX7fNe9D0/KIPSi2nCw+wzpH0d82m/UvhRtC+17n40qwtA6HW0d5T3GTxT5UwaGno/RvfTT+XQL4xP66/GJlshLetzSTkQKhY+TAlipMOgU0SFJBRe/UzgYqB990kVT42AaLgUDwCVnHJ1/lBfPpe/qb9KFoSZVPKSLaxgpIwwqDbBGmvVI5xgDZITN98q0A0lnmUrJfQbENDD6fnpOhaPzFuGFozZ9ruVv0nvJt26cGlEj7txxiOKlEu2z7YRpHnLhoExwPKfy10Yp917tWiiYlvLRsOCLzi7piA4/Tl8dvGoaYQjjtjKh4cX5IjKLMDjqQF3TkTunnoWBQsPQ8xdfem1q5M2FkV7rkz8yoF6VZBVhYVQmXk2Hnisj8EidwXgRToAIR4/kdawhQeNc5FwbryH1J+JKdWNcn/dIXaPOaUOuMkrPxzSc86Yp3mvJ2dA2gPzmeNXySmVS+72WMrvr3ke6v/3ng3r1LOk9/LjzsvVJDTs8h2MvyqN0VNmUJsXAGW0r+rFPXhiVau0h9YUwkOvzL77a7bjzpx2DulK4//iRwyffxcqlP9IeehujdK3vcsePH8rKROtmLi1jOWhdN1u1Jzk5znONfkzISftTOH1jEkp822xo+KvUb9E0t+BsGXVT280oCz1GvdC8DDmPQZOGlTuvGQlpA9BVuXfjGm08fdVaf2pIumvPaF+P+sykgr5+Bn290869ojdtwUbkp3Ts6zdGGMiTSRwf+Ph/GucjLPpXOAt1MmTcYzLgE8+8mNVprfpnNbkOva+6gfTr2Cr0iX5HtRZuyI2w6CfX2hLGdc88/3JWVsTVoq8d7Qh1D2cMeYyyiiPjB9KRljOM4MzK5btlG0z4Q/safe2eyouyWNR2UNNnIT+O9AuILycrvYbccLz39TEiXPKg76bnq9YGR/oW7R+nNgqM6xF26UjZwyuyw2DcN+5s1Z6U0jLvdfQj350fMn4iv0PjUY7HtMGqz2osRj8a+feljf54OHuD89yxlE6NJ/de37W+/kFLfRZpbDGmGFrG8z4X7QNy69OtufCH1nPKsmQLTcNtUTe1HejjgXtDbFRpGheRmYalkyVIC/rr2ht2VOt1635LpGnRuhnhcGzV11PdRb2a1xanC2diwp6mNz3HFsAkYsqlNJFF9WOOM9Kbhlv73aoNaKnPamkeel/lRR1lol5fP2hIn2pov7Fko4q0a50mnfP4iTR/OR76rg3VvalDnDA/d9y5vRPmt7QTkdm4GIRC+Mx0oWIChDoK0m/gBBgcFY4vfvkbMw45wj7m5K9OwmRFVcRD2Kz+03A4pwBjVjvPovRRNKSJwRnKSR0NhBOrBmth4VFOO74oAmaNRrqIO30mhQplmcalv1UeQ1eH6PvznDOrLjr45IWZuMgdmfHPih2MD8iupniZpY1yCZlQ+b5+1Xe7W26/Z+JAUodrTv6vvvaLiZM44uZ4xAnnTx2xGM1xEut9PV/21kZqWGI2MLIJ2fF7DK9RVovKLMLhqB00ZnowYAv5kDbKNsqGI0avkkM+NVxQ/pTfiWddNgkT3tMZyShqTU+cEwfO/5AVYdFBxHHB/3FnfH1mcJarSxGWdlwO+cLZ3WeO+co0TwzwKBPSqA4C4h3SAYw4Wh618arVH41XdUFJrvp83zm6SidGUPaUHbKCD9Kls424P7Th7It3yL3WnMF0ME65axtAXmErVujm5IoOiToTR2a5R5gHHX3WLvfjuckMrdfKq9yHyGPIM6mBGO7JF+mgnmu7TLpL9YlZf5EvJq8wCCjFr20ZcmXgmXv2mu07pu0/z2074szJCnaeP/OCq2c6phhG+wy1cEn66Fuwmi3ab4605+QX40Nc59lSpy3qIXoaw2wYg0gjs6vRGWnfBX2HQyfNJ7OwyUuUO0dtp8bUndZ1s2V7kuZ73t84LuhDBGsMTr5764+6nU+/MN2ycIgTW+NfpX6LpqsVZ63rZq5vxQqeWHleMgxq3tJzJtelukb7j+gi6gL1s89ISJu+38Enz/CBLqXfePX22yY7WlBP4YcjbRn1Jk1Py9/a10M2mr5SX48Jg7fe/pNiuoIN8kAbFDob/UFbrP0pnoHxNE8RBis8P3vsOROZoKfoC4WMTjvvWxNjML/ZDUT73bmJiS37Z2l65/1N+V7wjeunTJCXz3/xgsnM3tgeeYjBKeIPucHQpw4/Y9pGBZuUAZMfQ4Y8d9JZlxX7xy362tHHgxvi4ohupG8Mc6Th/x56anfsaV+bnFOXaKejvaP83/zlr3dhpGUbjPNN67j2NZAZbTTtJ9f72j2VVwvbgY4DiJs0kBbSRFsO8yEn5IhzpG9WeK4d5n3C0TFPrM6Cp2ArPa5iG0waqeeL9o8Jh75c1BPkmusjhUyIU3dk6ltp0qo9ibhbHTEewxUcxT/2C9oErvPPWDv0N6wPjVs5HtMGqz7rY5F0RD+atJfSRt1QB2KaP+oAq43JYymd7FQV8uCIrSYmOqLb6CPrfT3HQZvTZaS/pT4LWbQYUwwt43mfi/aBcuvTrWn4jNXoWwSr1FUdB4+xhUbYreqmtgOL2qgibXqcV2YaBudav0KOsJM+l/5u3W8h/BZ1M9LZsq+numsRWxy7IGHvRs7oidpKdW1/SpNScnacfQ88cVonhpRlyIxjyzagpT7TNC5yrryzQhD9T3mgO8I+ktpacn6RSEMrGxXhaZ2e10+U46G1XU/TGTqjpre3tBMxhMSgh1mdOqjHaKQzJ0sdx5zQ6aBgUGLpdgCJcTMaf+LFoBj3OBK3OvRwZOEF1zTxHMpYG9e+mbmpcfvSq2+aCU+3MWWQVZrpqLMsSgov8qKGo9wS7Xiu1VFnzaA0mIWZyiziojxee+OXM3KPexwxumBgDy4YFKdGacK48rpbpwpqiKNUGekzRGlalnWuhqXIJ0oWNtWBTL6POunCqSxKq3Zay4zZSjTAhJuTAfKnox8NRGl1LOnHGB95LC3LJjxltjSYoeMYcVJX2PosTR+GeTq3EWdJZ2jHJZ4lbOqn8kbaWLUQz5QMLmk6Wv/WxnlMx0W5L8l1aFpVVyErGEA+6fustmBwhcxqjV/67jy/W3MG/7EFWomzSCedwqHfYNO2pzQIj3CXfWSruxiYo3swGKvuIf6o5+EoozwxyKa6XbcnLRkGIj9sAcdWcIRVMhypwRHOcu0Js8iOPLGuG4lX5R71GEdfagy894GfTY2uJZ2m9TDCwmiMPCOPHHFsMfGJZxjQxNYe+kzuXOvrmLrTsm62bk9y+Zz3WjqoQL5//L/3mQxS4HjMBKBV7re04qx13cyVm7altfqfvp8aNkp9bt6DS9r8nJEwNWxv+/yZk5mmGh96C71LGuGmNPtY31n0nDTT3wxdwRFOv3LRNTP9DNow1VP0+8hTLn5kUJIDzxMW/R7iIT5W6cK6hpXyFQN59Gr0n8KYjZGWdo5V1zg+CZN+uYbHecv+WRr2Ir9TYyjpx7Hzh+/Ye5IXxnJD2/BUboSFvHRbPjhjcgN6n/t8k7G0rXWLvra2GcQH37HrTThKacNJT0y4YQyGY5jnaadSB07rNli3os6N6bR8SVuuXxmMkWb9X8R2wKQIHPbosLRfE2nCmRdtOfHmHOjxrNYBns31M+JZtoErjfdXuQ1u1T+GuXA4oav6+sTUn/i2KX3y0hb4rdqTKKOWR52wRH5zfW7ig0P6kyWdkUvTvG2w6jPOc2HHNW2fSmUVq7thP9cGR1gc0bm0K3otd65t6Nj+RYTXWp+pLEIX5er6kDFFpHFZR20fho4pYLC1LbRl3WzRbvbJex6Z5cLTXeSCEyaf5p5Nr7XstxB2y7qp7VzJRrLWtjiY1e1JmXxQatPpW6tttbYwR8tGdSZ6QO/Vzlu1Aa31WS3dQ++rbIJ3FhboZwQIi/EL3PAMbWFuMnlLGxVxap2OtNGejPUTpbLQtqDULqbv9P3WflGk8yOfOr5j29rSe1veiUgHnUYhJyBVwrnBMO+kcDDrr7TdDsa8GNylzqTU4BIDsVy6KFD2rI1CLjkreFcNXxgu4lsawBKzezGW8lwuLq6lsyxKRkkaHpyMpIt81mZjlOIbc13lz3dVUmP0mLB0dkgYNnLv0wgwGA351xoBTWNa7rnwl3lNO8WkHyVa2q5Uje4l/pclsz4ZpI1wTnlq3aWu9ClBbXxyg5mUaxwLpfRpWZccFTroogxwqJS+y6GD5qGd8FLa5r2u8hnTcVFZRF2JI0ZCZoWiu2rfmsIwGVskw2tpCyzyp7JdC3m15Iz0w3LIiNlUJYPW2LJs3dkYG388n+ts9w3mKWvKHJnkJmwoGzxTagvTeHPPoVd0xnk66SbywBFmWUlDnH2GJZU7xmNWIOXKFOdErMohzJxO03qITPjGGvnXdMW5Gk5zOi2e06PW16F1R+Xfom6uR3uiMug7h6HSFoLkHXYYfJQGjxq2ynrV+i2tOFM2Fq2bKjs9V30/1siHDiBd/IeDQ8Meeq7bRjGeUKdOGobKdtmT7HJ9PXRaTv8M6euleSn9VmdgrkxUBow9YleWNL3o1+gbaDmnfZDW/bNSvua93rd1Ec6J7TffUZw0p3Gq3GC2ZChX+TMOK43XNOzSea2vrXqMNGH8Df2n6SUdusI12sW0nWndBitTizrutW9GXhe1HZRknl7H0ER8/Kfsx7NaB3gunO9xf8xxldtgLYNF+sdpf7A0SRa56STqvudatSdjymrIs2q/oZ/SehW86uacvi+lUfUD56XnuB76ArZzfeP0Gb7v2xfe0HuqP8bkLcJvrc/SfC46poh0Luuo7UOq60txLsMWutZ1s9ZulvLO9XlklguPcTW2Peo89YYJS32f2UnDaNVvIVytv4vUTW3n6FOski1ObUE5W0XIV/nuey6e16PqzFJfQJ+P81ZtwDL0WaRx0aPKBt6x4Zd41zY9XZyR9g1wCC9ioyJfWqdJ27x+olRGWq9K7WL6Tu03n++jrSOd2KZZzNb3zpZ2ImL863PW6Wzxv/yHA7qHH3t6F2EqHICRrjBQ4euzqTNJK8AQ44J29NOwNE4qhG4DiEOFfOlMn74tIQkrrVSl9KkhorZiUdO4yLk6WQCf2VfzhJc2+rWtydQhnCqhNP6+ck+fXfZv7RSjJPoGmzo4yHUAlymzmhy0vlzx7dkts+AVxU/++K+VpYbFeRq3cs3MbzpX6TPxW50BJQOOyhUdlNMrEZ4+myuDeG6ZR5XPmI6Lch9lkTvSyWX7q5JcNZya/NdSXq05owxVr2CkYlVZi7JdRmdjnnTptwD6nG8Rtg4a4CTXUdK2sMSHzrAqxaszzvtWcETa1FFXWiGgcr/q+h9MDawRhh712Vw+tR4Sd1/HVp/N6TSNN861ng3VNfpOSfYRfq1urmd7EmkccoRJVojHyijVaTCKUzBdHZqGu8r9FmVnUc5a1c1UfvFbmRpj5FN9kDo4Iuyhx1hxBQe172tpuZcmZg2Nt/Zcy75eLa70fugy6kO6Qlf5ot0PPabp5T3dvl3LmbA1vtb9Mw271Tl9Bcaa6AbypjqDc3TJZDu8wqQQ0qFyqzm9Q/6EnWtLxuRL40372qr/011x9L10i+5IX9rOtG6DtT+OLNDbOSf6EHkgxyi3FraDIXHyjMq4tHJVDZjqfB8aRzy36m1wy/6xTv4o9fd0IgztBHIOWemxZXui4bY4V4Npn61o3rhUN49pg1U/cN4Xf+iLPn2m/XGeL02w64snvadt0pi8RTit9RnhqiwWHVNEOpd1VN2V6vpSnMpFydao72ofM8f3etVNzUfabmr60/N5ZJaGob9Z8Y7Nlz6IXh9y3qLfQjyt6mbrvp7qrkVtcWqrQE+V7I6qj4fwreWkTKEH9F7fucaZqyN97+q9ZegzDX+Rc5VNrX+s4zDsbOiIiHsZNiqt04v4iSKNcdS2YNF+foTJkX4zMomxmd5Lz7e0E7FWCdMBSK6QFI55K6d23Blg5uJJC04rM7MZ+pyXKDfdApVBBjOAUXRc534afvpbO++l2RPaUFCh0zCW8RvIMUTE4I58nX7elZPZ4GMaTSoMyoRwStvJafpV/qkS0uc4b8FIGua8v8d0irWBzXUAlykz8kfZsiUv9YFvC+k/30KKMk9ZU+f/kLLUxicNi3TQAYy4YLwmezUq5jqPNbnWwl/r+yqfms7UtLEiI/3uGk5rvjPFlqOpMa2ki3QrjJr8x8g2/f4Facv9p0bQyGNrzgg3XWWOcRHDl3ZyIv4xx1adjUVlpoOAoe2l1qdLrrxxl/qHbGJrqpKhRweapW8nUs7BZG1iCLLXFQK5LfZ4ppXcCUvrYU5PjeEh96y2Uzl9n3unZd1cdnuSS/8i12if0GXRNuiRfgjbnpcM1qvcb2nJWau6WSon1fdjjHyqhxZx5rEtWvStS5OGNO26Sqw0MVGfX+S8ZV8vlw7GR0xyufX//WSmb0Y/jVnAUR/S8YzypavTNL3pmEbLOe2DtO6f5fLa8tqPf/podgIC8mIiRmklq8qtpv/Htjvz9rW1zaBPrmMuTa+WM7KM9KXtzDLaYN3NgPYdRy6TTcnzmHKF42A6ZTANZ4jtQN9BbvQn777v0V3qEnKMbdhLfSbtI9X6yBpver7qbXDL/rE6CClXDK2pPNTRWNpZhndatSdp/Iv+VtsSeSxNdlskHtXNY9pg1Q8t9BllwGrjqKOUF3qHujhv/rRNGpO3iG8Z+ix0J/lM29aId1WO2j6kuj6XRuW1lS10mXVz3nYzl/e4NlZm8d6yj/P2W0hXq7rZuq+numsInzUZq7MuZ2dQR2PJVtEXh+rMWh8kwtE6tWgbsAx9Fulc9KiyqbUnartL9brqi1J/K02r9r9yNiqt00PDTOPI/V6FtsBOxLd/29vBqBVSCzjm6aj0VYIcbOn3EVEmLFWtzZiPsFT58W46y0KNRaWVHhFW6yN5i61ZSVv8v2uvQyZbvjEDuGTMi7SwGgyjDu+S/utuvH2XwZw6sbjPczxfa3xaMBLpXPQ4hrVaA7ssmT3+5PPd5794weTbMVGWfce0wVAHb61skGet8dGtazGUKAe58z4HJ/HV5LpoGbd+X+UztOMyJA0YBPg2RzhuKOO0LAlHG+jcfY1rjGxVt4/hK+JrzVmEi76IbwZGupARH5Y/95Lrup1PvTBjrIv3+o6a10UGnhpOpC13LJXTGENc5EcdVSX+lJF0dp92opEjDsUIW486QMEInqvbeo2yiLyX0qXyWkTupFPrYUm+mp+x59pODdGbhK9yr6WpVjeX1Z6MlcPQ55UrDNPHnfH1mTYL1vgORSm8Ve23tOZMGZm3bpZkqEylg8HSO1zXCQCp86PvvfSeGt0x9CM71RHpOQ6NvfY/ZqI3xqQ3jXfI75Z9vYivNjM99KEeU72nfOk9TW+qf7ScU13bun8WeV3WMYwU8ILDh7yqvDB+5yaFqtw470vf0HZn0b62thlpuWh6tZxJd6QvLedltMEYetltR/uZyJtvNWLoo47CXp88uUceopzSvObejTzyTpr/eJ5xdWlVe8Slx5wBStshnk0dthHXkONGaINb9o+1HcgZfbXtym2BHzLVcBZpTyK8VkedtMKExPT7UC3iUd08pk1T/dBCn9E20d9ii0+tM0zo2u/gkzsmQPZ91iQnC22TxuQtwlqGPhuiVyL+9T5q+5Dq+lza5pF3zRa6jLq5aLuZy3tcGyuzeG/Zx3n7LaSrVd1s3ddT3TWEz5qM1SaUs4OHDNFP8+zWpzpzSB+E9LZsA5ahz2oyHXpfZVNrT/r0zNh+Humr2ai0Tuf6cEPzmD63Cm2BnYgr4ERUQ8TQjkpfJUhBi990sLRz1Wfginf02DfLQrdT6ftugIbX8hx59A3Gdv/AwZNvj5Rmn2olVxkNOa81Php2SwUyj/zGcFNrYDVfQ+Skz5RkxgCYwb0+WztPGwxN1ycPO7177Y1f9hoIao2PKupaWtL7adoos5pc5ynXZb6j8hnacRmaHjqXGJZDbqzqYHWHvq/yrxlIxshWw434c8dcGZK+1pxpnhkYsaI6Voyn6cLQyN7lyE/fK51rXksGrdK7el3DSdOkv0sy004oYWnYpfMhnTqdMZ6ulNdvEPTNJlfONS9Dzkt5UXktIndko+krybckwyHXleeSfk7D0fwtWjc1/iEy12eGpjdN/yK/tS2NlaisImI1UaQtZTGNbxX7La05a1E3U7nFb9X3Q/vOvKt5LNXdiKPvqPFHmQ89jklvXxpK95TPWlyaj1JdKhmCavlN9Z7KXu9petM0aPrS8lIdVEtLen8ZerRUHnE92rNYicoER1Yta1ufc1io3GrpVpmojCMNHFv3tdNy0fSmaYj0peWs76RlVfudxq95hV36S7T/uXCQPf0t+l36np5HufF+X1zxTuSR59P880xpEkkufXEtN37UelOKK9JUO26UNrhV/1i/FZV+M3PMxGjldggbtXJodV/1Zq0NmDfOeeNQmXHeF3+tLum7MFzaNhoHIxOUMfbrO6VzrVvzyE/zGHV46LHE0RhZlPK1VtdVn6S6PpeGZdhCtQxKMs2lpXStRbtZCpvrY2XWF1bLe9H+je23aBoWrZvK/tB6FM/ldIzqriF8al5y50zowf4dcWo/LrV15Va+58LUa/OwrHmcR4eV4o88Dj22qHualvRcZZMra32+T68vw0aldTrXh9O0jTnX+pDrY44Ja95n7URcASdiH9ClgtXZN6HUS89yndV4sXIuKv2YlYiEUepwoxzjG3R9Kz360tfqHk7CO3780GSQl/tm0SFfODu7fatW8pDP0GOt8dGwWyqQeWQ2hjVtfHJ51HwNlVU8lwuPVbG6AovvdzJzJ7cdSV+DoemqbTXtnOwvAAAgAElEQVSLDPvC4r4q6kj/0GOuMavJdZ5yXeY7Kp9ldAR0q+QcFyp/Gvi+vK6lbFtzlssX9ZWZ8keeeOGMkRH+0LXMsC9NjNDwVIbr1dkgPTEQIf1DWdJZXuGs0bxxnm5NxezTeEYnv2inPu7HUTkfWr/juVJeWspd05fTK5GPeY/Kc64e5sLV/C1aNzX+kOvQ49D05vIw7zXVNVoeTzzzYsf3wSLtymIprlXqt7TmrEXdLMlNy2DMAHmegWIuDRp/lPfQ45j05uKuXWvZ1yOuO+95eNoG0fYcftx53SM/eybb/qheSNsb5UvvaXrT+qxyTnWtxjVU9vGc1tuaPFvdj/xrHhlDXfCN66c6I/d92XiPtNfSrTJRGUceltHXTstF05umIdKnMiBt+k6U0dBjGn/kVY/ImZ0cWGG2575HTeUdcTD+oB3Sd+KcPMRzQ+KKPPJOmn90It+JjPDeucenJiulck5MbRdz40fdUjkXV6R/yFHjirQNPaZlOSS+RZ9ZtH+cGnbhItI0ZmJ0q/Yk4m51nMcpMzZu1c1j2jSt64vqs1yan33hlcnKxH22nZBdhVyb9EaY2iaNyVukR/M4tB7FcyUd06dXIt5VOao+GaIf5pF3zRbasm62ajf7ymeszPrCankvWNZyHNJvyaVh3rqp7Ec9GXrM6RjVXZqvXJqHXtN2Q/txOimlNrm0FFeUAXku6Yf03ZZtgMY/VO7x3ND0pukf+lvTlitrDadPz4zt5xFuzUaldTrXh9O0jTnX+pD2MceEs8izdiL2OBFZwcRKJipBaSuIFnDoIIDBOfsO1wq178Og6btsmRLfKCF8ZmNyJF+l75ClYfA77XCHQVadi30rPXJhLvMaM3wfefyZibEj8kueczNA2D4Ixc79Vo1J5K0FIxHWosc+5ZmGXWtgW8tMGwF4hds0TfFbn00bjLHp0i1r0rCIjz2u4YL/3P1I09BjTa5Dw1mr51TWy+gIsMVOOPxzdW+M/HU7iVxYLWXWmrNa2nA08C0fnOvB49B99Vehs0H+dE/93KrTnAzY8i3y2+eoyn33ULfhTmeap3FhVIh4WnHeUu5aD1vooTT/2k4NrTst6+bY+pSmf61/ax9MO/D0k2pbWveldb37LcvgbNG6WZKXtqVjjHw6UByyW0Epfh0jjIm/FF7L6y37ejAdEwXRkZz3TV7p03vKl9YbTW+qf7ScU908Rge1lO+8YUV7lhoTav0glVtN//fJn3RrWIv0tbXNSMtF49ByJv5IX1rOy2iD+8oJA9vFl98ws/tJbltLwlCdkeY1jUP1Qs52oHJDbzDJNw0jfuuzKTPxTMiTukl9iOtjjxutDdb8zds/1pXyYb/QFSXYDkpb4Ef8ysYi7UmE1+qoOhU2hjjOxsatunlMG6j6YVF9Vksz4wC2M8VZH338KOu+d1V+Y/IWYS5Dn2ldT/VqxLsqR9Vdqa7PpXEZttCWdVOZXaTdzOU9ro2VWby37OO8/ZZausbUzdZ9PdVdQ/is5YX7anNQ+4yOgebdrU/5q/VBIq2qwxZtA5ahzyKdix5VNrX2RPs52P35HfEvw0aldbrUh4v4xxxXoS2wE7HHiajboH3ok8dmtzppBUcoaCp5+t2YHFTbb75j2hk66qQLOzq9uefoWJ9y9uXTZ48+6aLu56+8MXEeRmeK+30GAQ1XO9whE1WO4VjUd9b7HAPIpVffNJXBZ489Z5fVbapo5+ks9uVRGVnvAcaYfNYa2DFh9ckn7qlCrDUCfQ2G7gHOd2dYzRhxpMd0hW4uXjqh4YTGeAZPaThjftfkOiastXhWZT204zImXbpSLFc39ZsGY3Rdq05hKS+tOSvFk15HV6tBl7YjfSb9rXVrGYaENL7Sb3W85L4ZkL7HLNOPHfjFie6u1eXnX3x18t1I2rUIW9urknEw4lQ93aqjp3JfdMCv9TCnpyIf8x41/0PrTsu62bo9mVcOQ9+L71ukXLJyHj0W/StmKQ4NU59br37LMjhbtG6qXPRc29Ix/Tb99ldtcoHGl56rc40+wqJ1PA1/kd9j6pPKMVf3NSy4ruWzT+8pXxqOxpGmQdOX9kEIo2X/LCdzvoF07te+3TG+YaVx7pkh1/T7dWlfRndkiLGVhqlyq+n/PvkTpt6vhdUXr7YZabnoe1rOGn9azhpeqzZYZVg6ZxyA/oDt3fY8sKOfkj5LHkKnp3lNn63ZDjSsWj6HyERX28zzraVIv9bBMfo03h9yZBUm/Qa+h84uG/we8t7QZ8b2jzXPYfQdOzG6VXtSyuMiMtPviM1rvC6li+uqm8cwo6s3dAVoGhfb/n7g47/bhjjVJenzfb/Zbp7diajHlDU6t+95ZSM3GaDvXe4Nqbu1MNL7qrsXkUUaLr8X4SwXnuY/1fW557nW2hbasm6q7BdpN0t55/o8MusL79XXfjGxXS9it1qk39KXNr03pG7Ce8u+nuquoXxqmkvn2vfBnk+bFNucRhtTerfvuoZb64NoOK3aAGWz1m/R+NfiXGVTq5u6WjS1OS7DRrUsuak+amnXo91jgh0TmmtlZydiwYmIwv3yhb9bAcF5Tgm3gkOhxgDaNzNRO1Uo1NIsOdJ72TU3T5UuHTHeBQpdlk8YPJfLXwqQdqpQhjvu/OnUYLaIMSaNp/XvIYM2DAQxSKzNtB6TPp31EMbtMe+3fFbLr9bhH9LAtpSZKsRSIwCjlGUM+Cmv9FmeUScL20Tl2Kbu6vapubCQvQ4oibevbg4pqyFyHRLOWj2jjfOYjsuQ9KW67NobduzSaKmOZZvAnBGPThpbe0YHk7Js2SnM5aU1Z7k4StfGlonO4BsySaUU76LXGaTizAs92zeBBflq+1UzjvG8fl8T53Top752MvKUziC8+bYf78JiPDv0qDpt0QG/lnmq84amp+85rWdD646+06JuRnnBR8s2uC/f896LPkW6nbz2rRbtE0UcyKM0aGsts2VwtmjdLJWRtqW1/oyGkeqhMTtyaDic6yS62uz09N1l/m7Z19OwYLGky3Lf90ufVb70nsaR6h8t57QP0rp/lpYJhmb9TndtfJa+r781j7o1N/VDx5s5Y7/Krab/a+2O3i+FRZoon76+tur/tFw0vVrOyCPiT8t5GW2wyr90rnyV9Ah5iH5LmlcNNy3LnO1AwyrpdcJMv7FbeladlmPG85ruOG/dnkS4HNG7bM0fcuTY1wfUd8ecK3t9ZRVh6kRG+pA4OWMsgTziudKxZXuSxrGozNS2xLc/v3/7vdX8pGno+z2k7uTe1zpQmuCH7US/Md3X9uTiSK+p/h0SFnVZd5XI7WKVxqG/l6HPQncOSb+mpXa+KGe58LV9SHV97nmuKa+1tja1H+RsoS3rpsp+kXazlHeuzyOzXHjYRM695LqO74DCyoFHnTVZQJJ7tnZN683Yfkst7LivcZTYbt3XU901lM9Ib99R22NWPDOZOXa6q9kx+sId265FWFqnFmkDlqHPIo2LHlU2pbpJHOiD2EqeNj61Oab6oq9/QvswxEaldbrUh5sn/8uw612zfcf0sxV92/tHeu1EzDgR04FwyTiGEFvBgQI96Oizpp3rf/zI4R3b20RBxZFOFYYKlCz/vMO7cV+PzJTHiMVzOcWBkRRHYNxPB3oalp5rh5sPWNPQE0apI6jvtj5/8aXXup1Pv9C7khLFpx3B0sodNf6hXI497WuTWXalNBMuTlRdCp17Nm0ct33+zI5VTOmz7BP+0KNP7XI9fW6R35qW0mA5wh/SwLaUmW4r+tFPH7+LXJHzcWd8fTq4gzn+cw2GNprwqTMOU+MIM4/7wkqNAihWZn2UZmlwndkspfo0RK5RBqtw1MZ5yIB8SJqREd9Y0u/SlAy5aaN+7OmXzOg86lIYJlgV9D/e9fFJebbsFJby1JIz4mA7VjgvscUzaRswZKUTLIZRhLYA3Q/Xmi8GHbQZpfZEn13knLSQBuocafrKRdfsMhud/LP9UDzHsVSfNC268nDfA0/sWNFBPEO2LiIcOpQhJwzHV2+/bZe0RXzIDyPfD3543y4r2+MZHXQOSX+8lztqPczpvNw7Y65pX2Zo3WldN1u2J2Py3vcsKwspY8pa60yUR8iKe2yfzjd4oj1hsIKM0vBXud8S+SIPLTlbtG6mMuS3tqW1/kz6Pm149H/JK9/4w0iRPsdvdOJPHvhZtp4zY3PvA/5TzxDOpw4/o2PlWi4crsET7UZutVPpnXmut+zr6Ux08njYcefu0k5Qd+nbcl//U72nfOk9TW/Uqci3lnPaB6HeqQNu0f5ZxMkxXVUc+UpXEeo7cU75Us6EEdc0H1G3yDc7pWhbR98o3omjyi3ejXvpsdbutOpra5uRloumV8uZtEb60nLmXss2GN2LTkbGqYzid9rXyK0C5VnyEOWf5lXDuvK6W6dlWbIdxCp2wmOMvuOu+2fSR7oJRx24PFsyQFE/dbUBLMFUKd99Y81ltsG62jZkma7kD1nmjsvqH6txmpVq8Rkbxo4YhHNpSa+1ak/ScBeVmepVZA5T3/n+XVmbCbqU8kfOaTpKv1WnjWmDdcUHvKbOTeot/fbgJI6pLiFd8M/zrLoqpZO83fHjh6b2qtKK4/R91WPwQD8gfQYZl/oHLfUZ8YbuRB45WaRpG/p7Uc5y8Wj7kNP1uXeQZWtbaKu62ardzOU7rs0js3hXj2qbiLozZEJE635Ly7rZuq+numsonyrj0jl51pWHXzjl4qldYexEBI1DdVGpD6LPx3nLNqC1Pos0LnpU2XCeC49+FfamsPHwaaCXX31jl2fRq9Efb2Gj0jpd6sPl0lu7RjojL6R3Ubuefl82dEbN6b2lnYgI6e/3Pqw79ZwrJjPP2FqDRkIN2xgSaYBKhdkSjnRrReDYY58jJp0GvOHMyIpZJaSdzi4OtFzadIYOz7JKB8Wmz2I0JtyARVcq6nPpuXa4412OzN5Ln132byoRcSOr3T9w8GSbVvIU//sdfPJUGfAcBgY6yaV0bf/enTPPp2VAuFSqv3nftkm8QzvNdNqjspMOKjwGF8I75uSvTjjkfkn5ldI79ro2JrW0D21gW8lMjYzIiLp3+PHndyeedVm3l3zHk3sMPDnyn5NZ2hGl3qC8CUvrN3UKR0FfWMiYhub/Hnrq9DmeJ304voI1yvG9Hztyyk+pkR8q17Flu+jzDMCYuRb5iSPOmJAP+YvrccTZk4ub6/GMHpEZsoswOVIOfc54bdR5nrqOfDH8RmPP8etXfXc6yaJlpzCXP6615iw6QvCKAQr+Q3awi7Fa2wB+Y8QupS+uw69+SxEZ0vYhQ8JHp1EmayGztN0hLVqXqEcxMYV76MVLvnXjLu1X5E2PdBJ1pSPv81+aOKLvcs77TFSI9zjCFe1IlAMyQx8Fw32dQp6NsGA4jW/M72CD8HI6b0xYubp5xAnnT50qGDaZeBN55ohuyBlpWtfNVu3JGHn0PattJiygA2E09CKsUk/ftdch07KmjPr6U6vcb2nJmcp10brJtyqUR85hNCbK4RCEYX3mzAuunjh/NR1xjh5KV6+n/T3KGZ0Y/QdYiPf1iFOA/lTUdY7wwPuRHto92q3oBy6qDzT+3Lly26KvpysuyR/ckz90HG1J5J38/fH/3mf6O82n8qX3NL1pO6R9JuJL89uyf6Zha5oifxwpS77fpM+m51HHeZ7xAm2s8kq7kY5PkF1pVxiVW03/19qdVn1tHf+m5aLp1XJGTpG+tJy517INVm7e8Z5PdExOpB8VdRK9zfUoW+SPkSwtS35refL8IrYDndFPWOgX+sCki3Fh9Gm594fv2Hva5+vrazDm18kMvJv2XeA2xq59DC2rDU5lSBqRObo9J/P0WjDVun+McVp3sSBd/KdbnaXp0d8t2xMNd1GZERb1FNtH5Iuj9rnhDv0UdSGtr5Gelm2wGtpJj9YBtXXBMEb4SHsubaqnyRf9c3RM1HPaqbR/llshHPnUIzvfMBaL+OGV8NEj/H/4gOMm9axUN1vqM9IVupP05GShaR9zvihnLccULW2hyKBV3WzVbka5tJRZhBnH0JXBLce0jY5n9agctOi3tK6bLft62j/I9UVULmPPc07coRMXWtviSHurNqC1Phsr19LzynvoaByGjFv4ZyzI+CvqA+0hMsmF19pGpf3kUjuRS0ftWmu7Xs6JWJvkteWdiAFU7oiz4e77Hs1CFoXbGg5WoqmTI5curuHQYGZ8pEOPDFAYLMS7fYbm1NnIe7yv4aXnuQ43S7VLs7jT91v+1gYv8ls6ItfaSj/yhjdfP8BdCo/r6VZmpbyhlM7+6rVTA1IpzL6BXSnsMde1QW9hWCLuVjIjnMuvvWU6YM7JiIHGORdfOymjuF+SWW5QHe9whHVWhChDpbDIJ89+/osXVMsw4tBtH7SMltlx0XjGnmu6Ig9DjqWOqQ52SuEwQGQwB5d96a2xwcARwwe6i0aa+Fp3Ckvpa8mZdoRKMovrtAF9jtc0veg+VrjH+7njWskMfahbreTSwjXK9ap/u7V3ZWaaT/1OH2HgZGDwlz5X+g2LOB3RNaV06XX0SMmgrHUAPVOKc8h1ZaNPTw0JS9Oleek7L7HRum62ak+GyGHIM9pm9skn7jGAoZ3oq5va5sR7peNa91tacpbKd5G6qekqySq9XuvjoIe+ec33phMC0vf1d23wx1hhSN+dMMcYzlMZDv2t3NbkoG1/qZ4jq9TpqvLhPPQ1k3niXqr3tBz1nqY3TYOmr9TfaNU/S+Wr2ztG2dFPTZ9Lf4+p44TLmOO7t/6o2Nap3DhP49Pfqt9VxvFMTWeTniF9bR3/puWi6U3TEOlLyznS16oNVm6Cx9IRdplQiGwiHXocU57ogSG2g9Sxk6aNPh4rnJAT92o6aEwd6GNoWW1wbgIyq8362kotA2UqlVX6e2z/WFeHEhY6Orc9oqYnPW/ZnkTYi8oswtn51Au7TCRMZRa/0/oaYYyRf4TV1/ak9qd4J47Uj7vufWRmjJ5Lm7Yd8W7piF5j7EFZRb5qR1YKk49SmFzvq5ut9BnpDN1JnDlZ1PJSur8oZ5quPjnpvZL+J40tbKGa1xZ1s1W7GelqLbMIl2Pq8ETufTo/3h3TzhFmrd+yjLo5pp0jjethi2OHLCZDKO+5bepD7noc02/R8OFJw0nPW7QBhNlSn6VpnPf3mLaJCfXIoi8u9EUrG5X2k/vaib70lO61tuulC57gq6+d2dJORAYNMfMqKiK/WcmA0IZ0MpYBB/ESP+nQ9DErhBlZDCpK293RyPENuMgPBlQ6xyUAuc7WOTrzkdlbtbynDdR6fWfr+RdfnXz3ill0zBZTwy+DAGYeIDO2aijJLCcblCSVSWfnIVPCJx62M2LlKs/l3s9do2yYYUV6YjYoYcIhM2TZlrDmwM2FO+aaNuh9nXvC1Iasr7MX8beQWciI7bKQC/KhHFmRe/6l13dsw0N82tHp6xghTxqCmIVI+dGws3VK8DA0LOIlfaxkZfUyMlHeqKuUI6uZaaB4NmSjx7Fy1XeXea7pCv0x5FjquJQ6yLCP44X6NYZ35Pnjnz7afeKzp031FashTj/vyqkRQvkewmwrebbijC15mD0FR7pqhXKANfIEe7Q7Jb768kQ6MYDG7NmoX8TFN+jmDbcvzr571GfqNUa3qEu0RaSPdDLTqu/93L10MDzvNtuRtvfvd/SUN+SFXmImMjPb0OehR3Jp0TqAnsk9M/SadpL7dN6Q8DRdQ+o4z/TVp2XUzRbtyRBZ1J4hbw8/9vRkhRB6K+1nBBNDdH/Etcr9lpacRX7juEjd1HQNZbbWx4l0oWfQN5Rh9Du0XFkdFn2PeCd31L679vGiLwo/zD6fR6/l4uu7pm1hTQ7a9vfVc3QdBlVtg9HbTFRUfa1lleq90j1Nb5oGTV+pv4EsqKuL9s9SmTLzmj4k7RJs0L+rjY8Ig7aWMQLtNe2FjuVgK5gYOpZQuXGeplN/q35P5R/PISvar0X62jr+TctF05umIdKXlnOkLY6LtsGU3fab75isFGcCldZtyoAyYYxHnaz1RclD6B3CScuT32NsB+QRrplcGuOTSJOO85X9IQaovjqATiKNQ8euy2iD+UwLjkP4R2/UJvYGCxyX2T+m/GEhynjoFviavjhv1Z5EeIvILMLgiP7GfgRfOr4IXcR1tvws6Tet0yGn2rHW9iB3HaOTFsb7tLlRJ7XupbqEfLGqkS3nWenNDl1p3aS+0rYTJvVJZTL0nPfSsUqMyZgIy4rFWliL6jPCD92J3HOyqKWh7/4inGm6akzE/Zr+1/6Ulil6THVkX57Se4vWzRbtZqRpGTKLsEnnDbfc2f3Fu/ef9F2oY7SHcb90pM617Lcsq272tXOwMmQ8pm1rjcWSvPqu6wQ0dkphdWLf83FP0xV1ZcgRniKM0nHRNkDDbaHPNLxFzrVtovzTvt68OiPyuIiNSvvJQ/pwY+VAnW1l10PnYgtU3vramS3tRBxS4cYW5lZ5Xh2PGPKHfjdgq8jH+fxttTGzjDa3jNiSASOEy3lzl7PL1+W71RjQQV7NoL/VZOP8Wh+YgTwDYehYhsHKMs/LvJVc1JFh28FyZd2qzByOy8kMmAEzsBgD7rcsJj/zt3z5BaM4vzwmX0zefMIvnIi1SUB2Ir69mLC3onLAMaAfPmapePq9xa0oF+fZdckMmAEzYAbMwOZmQGcW9s3SMwebmwOXr8t3DAOx8mAZs5HHpMPPjufWTsTxMjNnlpkZMANmYGMz4H7Lxi6/rVD/7ERsx6iuoGV3htgRIMeRnYh2Io5aKcQScraEYMsJPNVs7TVkG4ccfL7WrtJblpalGTADZsAMmIHlM3D7XQ9M+kC1WXoui+WXhWVsGW8EBvhuLtvZMm7ySraNx6ydiBuvzDaCXnAazZUZMAOryoD7LWZzVdnUdNmJuDin+HfYzpzdJRmnsAUvqxJVzum5nYh2IvYCosCwVy4OxPh+Io5Evmumz/h88YpsGVqGZsAMmAEzYAZWkwG+X0wn+z0fPmz6PVaX1WqWlcvF5bIKDLz0yuvdhz557ERvXHLljR43bbCxt52I1iOroEecBnNoBszAWjHgfotZWyvWFonHTsT5OGUXybvve3Ti29ln2wnTBWL4d/hed+n7yFFWdiJusIFMFNxaHPmmGR/jPeXsy7tjTv7q1DuN8WwoYJFOPlxPOC3+CSvC3cxHy2w+pbiZmXDezIQZMANmwAyYgc3DgPt6m6csXS83Z1naibg5y9X11eVqBsyAGTADZmD5DDz93EvdmRdc3cQXQDiER7nZiThf2fF5Oj6vgF8n/v90t327q/7t1u6tX/9H1ddiJ6KdiEVIXvj5a90eHz1iCtY8gIVSjj21I4xFjltlKyDLbD6lGMz5aPmZATNgBsyAGTADq8yA+3rmc5X5dNp+29mJ6DrqemAGzIAZMANmwAzMx8ADjz7Z8RmQRXwA8a5+TsROxPnKI5yIOA4/+unju8uvvaV7+dU3in6hlHs7Ee1ELMKiTsQ/+LM9uz33Pao7/9LrO66nINV+20gyvoJbZuNlVuPQ9y1TM2AGzIAZMANmYFUYcF/PLK4Ki05HnkU7EfNyMS+WixkwA2bADJgBM1BjwE7EzcXIlnMi1gD3/c0FuMvT5WkGzIAZMANmwAyYATNgBsyAGTADZsAMmAEzYAbMgBkwA2bADJiB8QzYieiViKNXFbqija9olpllZgbMgBkwA2bADJgBM2AGzIAZMANmwAyYATNgBsyAGTADZsAMbCQG7ES0E9FORDNgBsyAGTADZsAMmAEzYAbMgBkwA2bADJgBM2AGzIAZMANmwAyYATMww4CdiAZiBoiN5AF3Wj1jwwyYATNgBsyAGTADZsAMmAEzYAbMgBkwA2bADJgBM2AGzIAZMAPLYcBORDsR7UQ0A2bADJgBM2AGzIAZMANmwAyYATNgBsyAGTADZsAMmAEzYAbMgBkwAzMM2IloIGaAsLd+Od56y9VyNQNmwAyYATNgBsyAGTADZsAMmAEzYAbMgBkwA2bADJgBM2AGNhIDdiLaiWgnohkwA2bADJgBM2AGzIAZMANmwAyYATNgBsyAGTADZsAMmAEzYAbMgBmYYcBORAMxA8RG8oA7rZ6xYQbMgBkwA2bADJgBM2AGzIAZMANmwAyYATNgBsyAGTADZsAMmIHlMGAnop2IdiKaATNgBsyAGTADZsAMmAEzYAbMgBkwA2bADJgBM2AGzIAZMANmwAyYgRkG7EQ0EDNA2Fu/HG+95Wq5mgEzYAbMgBkwA2bADJgBM2AGzIAZMANmwAyYATNgBsyAGTADG4kBOxHtRLQT0QyYATNgBsyAGTADZsAMmAEzYAbMgBkwA2bADJgBM2AGzIAZMANmwAzMMGAnooGYAWIjecCdVs/YMANmwAyYATNgBsyAGTADZsAMmAEzYAbMgBkwA2bADJgBM2AGzMByGLAT0U5EOxHNgBkwA2bADJgBM2AGzIAZMANmwAyYATNgBsyAGTADZsAMmAEzYAbMwAwDdiIaiBkg7K1fjrfecrVczYAZMANmwAyYATNgBsyAGTADZsAMmAEzYAbMgBkwA2bADJiBjcSAnYh2ItqJaAbMgBkwA2bADJgBM2AGzIAZMANmwAyYATNgBsyAGTADZsAMmAEzYAZmGLAT0UDMALGRPOBOq2dsmAEzYAbMgBkwA2bADJgBM2AGzIAZMANmwAyYATNgBsyAGTADZmA5DNiJaCeinYhmwAyYATNgBsyAGTADZsAMmAEzYAbMgBkwA2bADJgBM2AGzIAZMANmYIYBOxENxAwQ9tYvx1tvuVquZsAMmAEzYAbMgBkwA2bADJgBM2AGzMD/196ZP2tTVHn+z5jf54f5oSc6YsIIo3smOronXLqlO7SntRmlFRuRgEZGwRcEFxbBAQRBQJAdREEW2VQaRBaR9xVBARFkB6x9lMcAACAASURBVAFZlEXQRtv+sSY+xZzH7z1vZmVWVT73Pve954cnsqqerMyTJ79nyTyZWYGBwEBgIDAQGAgMBAYCA5sJAxFEjCBiBBEDA4GBwEBgIDAQGAgMBAYCA4GBwEBgIDAQGAgMBAYCA4GBwEBgIDAQGAgMBAYCA2swEEHEAMQaQGymCHjQGis2AgOBgcBAYCAwEBgIDAQGAgOBgcBAYCAwEBgIDAQGAgOBgcBAYCAwEBgIDCwHAxFEjCBiBBEDA4GBwEBgIDAQGAgMBAYCA4GBwEBgIDAQGAgMBAYCA4GBwEBgIDAQGAgMBAYCA2swEEHEAMQaQES0fjnR+uBr8DUwEBgIDAQGAgOBgcBAYCAwEBgIDAQGAgOBgcBAYCAwEBgIDAQGAgOBgc2EgQgiRhAxgoiBgcBAYCAwEBgIDAQGAgOBgcBAYCAwEBgIDAQGAgOBgcBAYCAwEBgIDAQGAgOBgTUYiCBiAGINIDZTBDxojRUbgYHAQGAgMBAYCAwEBgIDgYHAQGAgMBAYCAwEBgIDgYHAQGAgMBAYCAwEBpaDgQgiRhAxgoiBgcBAYCAwEBgIDAQGAgOBgcBAYCAwEBgIDAQGAgOBgcBAYCAwEBgIDAQGAgOBgTUYiCBiAGINICJav5xoffA1+BoYCAwEBgIDgYHAQGAgMBAYCAwEBgIDgYHAQGAgMBAYCAwEBgIDgYHAwGbCQAQRI4gYQcTAQGAgMBAYCAwEBgIDgYHAQGAgMBAYCAwEBgIDgYHAQGAgMBAYCAwEBgIDgYHAwBoMRBAxALEGEJspAh60xoqNwEBgIDAQGAgMBAbGYOCFF3/dvW/fo7r/9F/f2X396pvCBwo/ODAQGChi4Ipv3trrjN0/fET3/C9fKeYfo5Mib9iwwEBgIDAQGAgMBAZaYiD8lsBTSzxFWYEnw0AEEWPgHAPhwEBgIDAQGAgMBAY2EQZ+9/s/dPc/9ET3pfOu6m687Ufda795Pfqvsv8ee/LZbrc9Du4DArft+EnwrZJvNnCYkxJ8+eoV3+l/EYiJwegcLK33u+haFh587NOndq+8+tvQG+uoN9a7r6O+0E2BgcBAYCAwsNkxEH7LxmD49d/9odt+1/39GJ2U+82OpaB/Y7C0qnyPIGIMgkKprTgGmGhj5TOTF7EC+g0Fzu4R+BE7Sf6jO/5Llyx4YTzRdNV32jzwyM+7//m/Ptq34eNHfKn79av/tjI6SXl7+w9/ujJ0rapDEXStn4MJHt/0tr0Xsn/GBVd1BBZb9sEqy+acdt5z/6Pdn+22b//jek5Z8W495p99/qXugwccs8DsXgce27ErNHhYz8Pg1cbw6t9e//fus1+4oMcuKffRFxvTF8H34HtgoA4D6sPpuNCuY06hjo+7It50HsXwoCnj312x3XPatNl4Fn7Lxsn35dfe2v3nN//v3mckvfaG7SFPKz7fPkc3bMV3I4gYgA6ltuIYiCDizk6AOnKrHiRbtmHRQJcOAOx61fmjg9wIIu6M9WXjJ8rfnDz3cs/xnK0DMqssm2Nwy8KE73zvrm7bUWd073jftkUQCx3557vt1z/n/1VawDCmfZslL4Fvs0ukDKx33PVA+KAr7oNuFny1pJMFGY8+8Wx3+vlXd+/f/+g1CzbA7e77HNH/R57WizdatiPK2pz2Pfot+q0FBtSHU9tr1xFE3Lo403kUw4OmEUTcGRurzrPwW3busxZ6dGwZjCWZz1J5Yvz56murs0h+bJsi/2pga5X6IYKIMXiPCZwEBp574eXu0mtu7icXTznnig3lUQQRd1bc6sitepBs2QqfIw1v3XHPmt+Bnzl14byM4Y/yVZ2f3PWYsnN80EFuBBHfwDqrB+/48c+6L559RbfPts93Dz7y1IbqoFzfxfOdddN68eTCy65fyDjyeegxZzU/0nSVZbOGzwyob7797u7tux+0hlc5fRaTJsvF830/e7z7H3+3/6Iv/ua9H+8eeeIXodsSPmgNviPPcvD6wq9e6Y484fzFKvKcvuA5pyigJ6MvltMXwdfga2BgOgZeeuW17vt33LdmfMi4jZMY0F+7WhCR9n7rxh3d4cef1/9iYVgeOxzr7+cOjjv1awv/LPzhnXm3yjwLv2Xn/too28Eczv/94kULWULXnnbulbHgbAuPdXbFeb0IIm5hQG+Uct0M9eqK+Y12pCKIuLNjoMGuFoGszYDJMTSCWZv4GsMf5au9P5SOKTtH/yoHKpSP63mcqa5ii0nKneU/h6Wt9PzlX/+mY8D/X/77Hv0RkcsINK+ybJb6mgAiC4HsOJmUHvvbfzqkY8EFuxH5f6NtfalNm/1/+uSa67d3f/muA/of1zzb7O0K+ncdHf3Mcy92H/jIH4/cTekNdAY7EdEtYZ93nb4POY6+3AoYUL9uVwsiattWbVHqZsCWzgGEP1ynD1eBZ+G31PXVesogn2/AV/yTv3h/n3K/nvVHXauFiV1xXi+CiBFEDKWWwEAEEVdL+XpjqE5bi0CWL3+z32vwawx/jK9/+ld7dkd8/rzu5LMuH/y1OIpulQd9yscIIq62TtjsMruK9K+ybJb4xbcOddfbtiNP73jGSnX7thlBWIJY/J5+9ldxtGbCFyrxOf4PvbirYOC3r/++O/oLFy4WYBEgvOTqmzomf3583yP97h0C4A88/GQ/bnrtt7/rfnj3g/3/uwoPoh0hz4GBXRsD6tdFEHHX7uuxsmxzALGorh4XG82z8Fvq+2qsPET+4G0rDEQQMSYYIuC2RTAQQcTVNhzqtHHdSsnvKuVo8GsMf4yv67m6Xge0q7ZyVPkYQcTV1gm7iuyuUjtWWTaH+ERQ8POn/3E3NtcMtHnnlVd/233s028c9/yl864K27FFfLohvMR/odvBgOo7fCCOijds3LbjJ31wcbc9Du440syeRxrYCQwEBjYTBlTPRRAxsKvYtTmACCLW42KjeabyHH5Lfb8p7uM6+LZsDEQQMSYbYuC4RTAQQcTVNijqtHG9bOW/2crX4NcY/hhfI4j4Bv6VjxFEXG2dsNlkdDPQq4PTVQvwD/GP3Yb/csgXFjuKVHb1ePArvnlr2I4t4tMN4SX+C90OBm687UcLneH1nflG79v3qO6FF38deiP0RmAgMLApMaB+XQQRw/ap/2N2LoKI9bjYaJ6F31LfV4r1uA6+rScGIoi4izmMfFPo8mtv7fY68Nj+u0Kpb1/oMz+oBHzqjGFIeMYqeFawfvq4cxbf2nnT2/buPvqpU7of/OhnyW/AKLj++WPHdr966Y1B6uM/f65fUf+O923rB7d8g2PPA47pbtl+T/f67+q/JUPenzzwWPe5ky/qrCzaBl3v3//o7rxLrut+sQHnNdO+L559Rf9xb77tZPyGrnd/6NP9h7Frj0x88eVX+28g7bHfZxf9ybeOPnLYyf3kwGu/eT3p8GsfWv1jUp2gXIZC0klPc/hTGKOtYI721NIxlWdaPjs8qPPCy67vea34Aq//sNen+z5+9Ilnk9jXsuza2ufxCkboX2TE+sjkzt71qWEf3rzl3R9dyJHRBQb9O/5eMWL1GY1j5NyXu6x7DX4ZvTV1kRe+tg4igmF0jMom9YCVAz75xY7jU7lP6dgauqfmARvb77q/O/SYsxbYgA70z4cOPK77x70PX+CsJOdalsoA5YE79Da6jmMTPb3aX+Qf81tvnpndhD/wCVpVznPy5D80zkfHeeZ54e+v/tfbF/ygn3J6nPewYWd95dpe50CT8Z736Gf6yJev96pr6RP7z+yw6Q/0EH7DDbfeudjhZnk1tX41vc1/8I9v9dk3taDxnXse1tNtdl/LsGuTzRw2lF57pyZtKZst7EkNzaU88FFtBLuI7J2HHn26e+t7DuyxUZJpe8enq+C3KE1zcbYs2VS7mcKtyoW2p+Yan/k737ur9znsm5Ym7/h8/EeeUln4L+CA3alWjvkZ2Czko1RGq/9V/3DkLv2Czrrr3of78YPpW1LGE3f/9JGiT4W+oX3YHmyQtRFemZ1jHITs5tph+DIdw9GeHzzgje8G/t0HDl0cAwwvKetv3vvx3iZg25946vlsudRH+xibzPHPcnSPff7N7+xY2BrwwK5lK+MLX760/2+MvTWd/We77dsfpUxZ8Pmcr32r1/kmE+h/ntFXVl8qbeFrG03WDvqHfsJeclSrfacU//bm2+/ubSl00t/0e4oufTbXBmtZZpsYoxr2oQX5/PsPfrLbdtQZ3XU33ZGlydqKf3nXvQ/1+cz+qi8KXmv4D1bZhYr9pm6wb34GdOH3MWYBzyVfQ9vJNbhAdtSvsjLxX5Bh+t+/5+9XxQZ7uuCH+dpj/eObvv/jBZ+ZF3jqFzv70L6+R574Ra+H4CH9y73Po/et7ImW2eIaOWTsjP5mzGp4QwawnzwfM7aGJrXLtTZY56hK40O1YzXl49MTCMFum49Nvxn+P/zx47uzL7q2e/mVtfpR67H8Y1L0Q6mP5uozpdHsJ3VOHVOU6J37v+lM+Kj01pZr8yJ+7ga/ozQXl6tjrmy2sJs52ng+l2dWNnReds0tvY+mttj+z6Wt/RatZ6psahl23cLXU91l8muYq52Lu+9njy8+dcEnL7g3GnMpC8fM58WfuOPHP9vpHfOTczrI6M3VkXve0gbM1Wc5Gqc8N7lp5Z8ZDfh43pfCbo6Z8zXa1NYhC9ffcueamBH2ipOOfv7ML0fjIYcTnpt/bm3KpWADP/3tux/U+8jnXvztKj8xV97Y51v2m4gEpmD6UCf6/1Kd6hUaK+D5poY5er4MnjNY8ZOn6qDhdPGRXPLhKPoy7J56SoNOAMEgcf9PnJQtx8pLtW8soGrz014EL8cno4m0pHgRIgYZCLu+568xAKljiLQP/Ts191MnImt5pU6oYYOJ8hzvGGwz8Q5fcnXM5ZmWa8q2xCvohe7SQPiFX73SD9BL5dn/Q/igrMOPO3cQF8jY175x4yBdihHqmyrnyrdlXqszM8QfT4P1pRpOn2fMPX0Nb4f0mPUj6XrqIHSBOYVKQ+56SM5ry8rxVfsrV3/u+XrxDJ2BA6WT0CmakPNTz70yOYGP420B43ft+cmk46X4UrtIueh5/d+uwRkTezrRmKKNiT90gr3nU9W19AlOI5MXQ/jFDkOnL4t761f09nMvvNxtv/Ong34HQeuHH38mWZbJZqpdPKOuFA25Zy1ls6U9ydE75jnfKvvUsWcv9D79br4Sk8lgUL9tVlv2KvktSnMLnC1DNtVupnBbM8Go7eQarNmgKVWmPivZPnzjfbZ9foETfdeu0XfoPer1tLS+V/2DXmccMDSeQC8xWM7RpvrT2pNLsU1M8qfaZPgiZYEkk/JaDkEwC654v5SxRy5A2co/S9E85ZnpBtqGLfnejnt7fqg+se+o1pSvOhv/oaT/WZhCn+fK1vKU//56yNe2MsAXgZUPfOSNYLCVQbsJFtJ2b08J3D35zAtJ+lrZYNo+xjYN2T1rK22D/6VxP/b3wUeeSrYPuijD+FRKa8fntNUmjktlDvmgq2aDFcNz/WOdwIVHBJy0/NS19v3QgrWW9iRFx5xn6McjTzg/O9Y3vIy1o2qXa99VW5Ibx1hb1Y6VymeBzN/+0yFFuUqVo/UYL8akYMRo9mkrfaY0oqvmjik8na3vVW6GdGuqXvCKr13qA/RszYKUVrKpbRqibchuptprz7T8sTyzMkh1sQR0Yn/vvOeNxS+az1+39lus/DmyaWVY2srXU90F36fMxSGDLMwxLBB4MTpzKbbXfFuC4Tae1Pz0vZWZSqFX89dct7IBrfRZDc21eVRuWvhn6Iu5c1RGu9Fmto7voLPwLNWvPCMf30e390lLeMiVxfPaeT0NiPMeGL32hu1r6FCaWl9vySCiHwTjnFx81Xe7W3fc0wfuNLj4J3/x/n6HFf9h9HzwTxXaCWd8vY9QGzAYaB9z0ld6ILFi0Z6nDIM6aORVBUf+bUee3p345Ut3AvElV9+UnUAALL6t0MCAH7pOPuvyPqX9TEbUgnYuCOHhKedcseAHoGdXBgIHTfx0lWdJ8bJy1ga7lLXtiNP71akY5NPPv3rNpC0DZj9IZ2cQ+axu0kOO/vKCvvfue9Sa/zQf10ODzrm84n11Qj02uIdv9CeTooYxnHJWJ+bqn8szLdeULbyHHvrOeHT48eetWVlIHia99H29pm90UgNcMrEC9imTsv1KxRw+4Nv+h/4xeI5cE5hHlq++/vZ+5wH0wDNSghAYIaXHrlvJuZW37FSNV44/KRqsL81wpvLUPsNpoc8Mkyndoytr+X+9dJDXi+gPsGK4xUn0wbLcBM6zz7+0JhjpywK7rKQFtzm+spre6iZlgYUNrAl4HPH589b8r3mZgGKSs7ZfpuRDLpAPkxf6ivYg39BC6vnFczCg9eF4w1vDBIsd9H9/rQ5SbgU69gS5NtrQGUzgMdHE77jTLl5DGzokNQCgbtW1h33urO4Tx5y5oJX20U5vh6k357SZHIJzvr8HbbSdlOM24RGYt+f895njzknutmQCVPud6/0OPnFBH3V5/uXuW8tmS3uSo3nsc3aiGSbgK8EMbCKY4L4miK11rprforS1wNkyZDPlW6HLbCFBamJQ2+WvU3oI2fE+gu10GbJ9BOuZzAIL/HQcgK6jTPsPnW4BJU9Ty3vVP9CjvlDO18vZFOjScQVtwJc13x/9gc3jubWTMUvKnzV8sfsROUKu2KnHDjZ794JL/7UPLtIfjF+gn//oa9sFprxq6Z9puXOuCXbqgkt0PliAVjseuWbCyWgwfwo+HHT4aQtewyP0Pn1AEFv1FDse/TjTl0f+qb620cTuPltoAdaxd0bHKed+o/dprJ9VFtj1YPRY2tIGUyZjBKMF3umYFZ5hhwlowschu2dtpQx2xhjWKZtdudhyb38P/MypWf8AH5Cy+KFj8GWghx9yBZ32Pynj3Fxf0s6UHYZG74vamCfng1LWKtpg6GrhH1MOJ90Yb9EvTATzPPVTW0Zf5xaftbQnKTrmPPNjYdquPje4tx26Y+2ojmdr31VbMmRzaLO3Y9yneIGt0QUp6FudP6CNtns+RSc7E/H9TQZJ1b9gDMVYSv/X69wpVy31mfKixZgixceWz1RnDulWX6fHq/pl6Fn6UXU6/c443Jdj9y1l09pE/VPtptGVSq18ZHQMz3xZvGs6zlLK9vn8fWu/hfLnyqbSiAys2lycBmxZTD50RD36gIUo1ifYIm2fXft5HHQNPre9V9OXVhaplynKmWIDWuozpW/utcrNXP8spS+UV7VzVNYmo415dTa/2PyW+o5sUDGfkr7BT1YceTwsY17P6DSMkc7RQdb+2nTLBRH9CgQGbN4ZZWUDQTvrFDoegKaYqs6Y5cfBYqJKjzOhDjUQTChqeeqgWTmAlclQ6LG8lEng0IxxbmKV/N55Z8KElSWptlA/R7AsezIauliVuNseB/f8xZGgXmufTxlkvfpaepcHedXQIcysUPftg39HnXjBoj+HViVa/TpYXE+BtPo1VSfUsIGDdtHlN6zB7i9fenUx0UG+nKFrzTP6bwg7YB9aDLN6XK+2k3xMoFsbGcyDYc3DNTKgA8qUYcZoaqAaeVY5ohxwQj8jr9Q5dKxBKzn3bVnWveqaFH9y9ZpBKg0Sc+/rcwIr1ufIOat0vGySnyPZLAC+HkFEjLxOirGzIBVUQvcwMWR4zE3g6FEiKZwpT9BllKvPUtdqD1r0RaqOMc9YDWnOEik2yNtN7tFJ6CZ4Rt8TyPH16PGkpf5mwtb4f9q5VybxQ78YbTl7QjDDJoEpL6cbU7o21V50EDtsjTYmY1O2U+XQ8uJ4er127wOPLfQQthEb6fmWujd5pewxdqqlbLa2J6l2TnmWmqAFk2/+6336fhv7bbNV9lta4ay1bKb6TW1pamIw9Y49U1kH8ylZsrwc2wM27V5T9KsuFEuNA5DxK79120K3DPnaWvac65z+gQ7osbLxZQjimU7JBbbQSd+/475+x7e+b+WQoovwtawsPzYhj8cXYyLkiyN8CMbzLgN25MsWY3GEsJXpvz3a2j/T9sy99guMaMN/e8teC7vm2zJUn+pn4wV2SI80xyf67m0/WgTWhxY3tPC1PU0WNANTZiPpS+hlEox+ZhW2+WjIim+zyuVcG6xHUWN7U2M6qx9M65Gz9txS31baxGpy2mN5SOErdPM/GM4FnbAB7NhGf+j7dg09TByZP1Ky5RospV6CtylfFIywACZ1ZBZ1r6oNhrZW/rEeT1ryie+5/9GOI4Tpz6EJYsUteafaE+v/Vqm3T7TXzylZXcgn7c1h0vJpOsUGUz7+Onwq8V/t2JCNx9ZQHr+UDVaakfOcDdN82rbS+ELf02vFxVx9prywts4ZUyidy7hWnVk7pvBzNyyMSS1iZ+GWnv4zdEqB9gF8myObLezmEK+n8CxVnvrftBmbgD1J5fXPWvotlN1KNlv7eirfJk8p/Qgm1W/1fq3ubofP4M3z1O7Vz0UflI7GtvdIlQZwov8NXbe0ASpLc/XZEM1j/1O5sb6c6p+1nKOiHSnaUnrtiaef75hLgP7cgknjyxgbau+UUj1ByHhI0LP0Xqv/t1wQUb+HM+Rc6g6IXNCDTvAKjcnp3HEvuuXcOzcKLoCAUmOiEwfRdzbKUXcqplaG8o4GWlI78Hy563WPQjOws/qgxjFM0YZx0tUhQ7symVBi1R711hgBpbHWkUrR2OKZd0JxQHE2UgEZ22VBO1MT28vk2VBbdYIiNwBRZTjkXFKPKviUYVb5RcHrpI2nU8vKBSpaybmve1n3Ux0X5YXJKCn6yFbw1XxrSh00grMMcnNtVd56vZh7Z85zddRZpJHSsVa+8jHnZGoevlVr785J1R7k5GVO+WPe9fZmSM+ik87/+nUL/Z469kMng4YC9x5DyLSnW1ec48Ax4ejz2L3iLGf7va5lJXOqXsrUoFJuokSxQXCVCfaUvWOy33aFIG85rFlbLFV5pS57PpR6vs6RzY2yJ0Pt0//Abu44WuQKLOeOWtRyuFafYNX8llY4aymbnn92r3KYkxvLq6nKOjJiAQ7NU3utq5AtiJJ6F3wzuWm2ENuRytfqmdc/Q0GUkq83hiaddE/ZYMWXnnLh6dV3tZ+9j9baPxvT1pq8Q0cXsVCIScmUHvdlq34GQ7lFRuoflyYifB3+XstK+Q5KE/iy49LU54BWxkuMmyhf+9nbGZXLFjZYccNO11RQzbc5d69tpU3IOseDpfKrX5gaO6XeST1DZ/A9U9MZOVvOd/1YmEA+/GsLvqfKHHq26jZYdccc/9j7obmFYPigjOOM/7l8ilvyzrEnQ/0z5T+1T8xXDO3YmlK+ylitDVb9kNIrSofqi1z5Wt7QOEDLrbnWtqk9qnmXPIqLFvpMeQHO5o4patsxNZ/qTK/rc2Xq3E1pvoX5UXaRm95LLdjQPlgv2SzZzVzbeT6FZ6nyaDdzEsYbFmshJ6m8qWet/JaWstna11P5hk9T59y9nRjaXKK+wVC+VJ+o/QMnqTypZ61sgMpSC32WonXqM5Ub+nKqf+Z9g7lzVLRHacM/49vD1JNqqwbch/pY5apkQ1P1pJ4xf6mfN2Mnf87HTb0/99mWCyLqRNDQty10NeTQylBVaCgzv8NAO0jzeudGwVVjNHV1X2plqE4UojhYFay0bOS1BlNxOIjkT6FHV4cM9ZGVrYKeC7xaXsVJrSNl77ZO1QktDTaHMAZdy+RZqd1mTGmDP0YEg47DBPb5MUE2VJ4q+JTS1h1MuVX6Vr4GA3ILBpSvc+Tc6lx2aryGlyn+5OpXvlpfpFK29l/17bW7I7RM5Id+5l0mVJjo0P/1Wnnr9aLma3GtepaVykMBFOpTPuYmg1SvkD/naIyhX+ls5WyMqV/zav/kgm+aXyfHUrT7Sa+cfOrANHd8lU5+s4uCgaDSotcaqMMm5o7YY9ID3DJ5w6IjLUOvVS/nJkoUP1dd9/3kwg8rU/PmsGZ5LVV55X17PpS2lM2NtCdDbfT/Pf7z5/pvC9kuWdVpTKQjwwy2/Ht6v8p+i2JnDs5ayqbyTq9Vn+TkRvPbteoDDXDY/7UpbdRJ/pKvof0+J7hQQ5/qlLm+Xk19lkfrxSdn/GD/kSq+WCSCv8ZzfU8DUvyn/ex9kNb+mdLa6ho7zi4AFk+pvrBrbGHuZBejQfVzaSGn8rhW/1s9PrWyUr620qSLqNTn4D09olv7mbK1vtY2WP1x/Ad26Wt9Y661rSX+a70pGZhab27nqk5MzvF7V90Gt/SPdWI15+/p3MfQguFW9mQMLmry+glRrztryijlUd1ca4NVP6T8eq1T9UWufPXH0amc7FGzMEPrSV1r26bIVWt9prxoMaZItbnlM9WZXten6vFzNzULrXSDQ+qkt42SzSG7mWq7PRvLM3svlcJP5p85qjf1f+lZC7+lpWy29vVUvufOxWmAMzeHrPqYeQOwWeoD/d8whY6r1eVa55j3tF67bq3PrNwWqcrNHP9MMdFijoq2KW34MEObDTTvUB+PsaFj+Yu+QG/Y2Gzs+1PzRxAxc0wpjigDCQQ4p1xguoJ3isNiHTcWXDqxkapXFUcuMGJ1r3fqz+/mmBwcSD9xUaKLQJQFKmomd3TldirwqvUxiKfv+dU4Uvpu62t1QnMOudVZwuMyeQYNOB8EhW/7wU/6bw/y/UH7scrEeOonSTRoXzoCiHqGlDZHRrIag7pywQLjF6muQHvrew5MBg5KfNXyVuF6iuMC3eCDFbn+Bz/tiCvrw6FJTp04KAXsa3mb+v6Fp5N7vm+a23mqE0U1elH56DFr/YyuZSWt8QUnhkUbyILlGZuOtQe58lvwTPVmasDn6/aT9KkFLDpITDl9PpiRG5gyQWd8B3OeFn+vA5rU5N4YXevLTt3X4Cf1Xu0z1YO1dqqlbC7bntTyoTYfE658n9IwoynHvftj7rTcVfZb9mHP2AAAIABJREFUWuKslWwq7/Ra9X3Jn9H3VHZrZF3f1Wv17Wt8DZ2knxtcUDpS12P0j/IxNQZIlY89YFeL+WSWfuvGHYvjHFN9YvjCV1cZUXo5XlWPllT6dGC9DP8s1dZWz5jY1klP1Rn4QGdeeE124ZDqZ+VBijbjMeXnfA19b6qvrTSpbVafgx1yuiBW+9nbmdY2mMka240BLwhOn3rulb1PN3aCRNta4r+OQUpBEvoBOvlmEX1lcmQpC5QNJ6l6vY9U8pG13/31qtvglv4xuht/Ed7mJnQ10JhbfAYPW9kT3x9z79Xe1NinKfWpbk7p+1SZqh9K8qH6Yqh8/W41upSdxywaGJqwTdGmz7RttXZR32+tz2p5oTRs5LXqTK/rU3Tp/EkJF/a+zk96v4E8y5TNqXbTaE+lY3mWKqP1szl+C7S0kM1l+Hpz5Vv57IN1qXkGDTSm5iq0vNS1+nUpXyD1Tksb0Fqfpeid+kzlpsSbIf9sGXNUY2irbf8YG1pb5kbn23JBRFVAQwpBHd/cijc6T8ub4rAYAMaCq1SvCtXQjkurf71T6OdYBxtokeJE7r7PEf2Hsp946vliRF2VIwEqG8DlUj7AbfWVnCMGhrV5l827MU5oCRfL4BkDeyamGADQh8a3odRPkqjRHBp0GK+HFLxOErLbjLw5TPAcZ4mPfkNvzgku8dXoWpV0iuNSop1+5psGnAtufZvil58g8X3t66nlrcqB1Z9KUzRZnTp4qdHXysdcO+AL37bxu5yY/OJj4uxmqD0y0egcaw/sPZ+24NmQrPn67F4DVbxvzy3VgWdqMkj1wdC3yPSoQezckJzzX2lyT/lVo4esPbm0Bj+5d2uea9+UbBrltZbNZdiTmnZPzaO44ngS1WXoElaK576jR52r6re0xFkr2cz1ker7WhnzuNXgR66e3HP9pAH9TQBtSG+UAmy5eqY8H6N/lI9Dtqy0Mt3b0FSfGL68bVV6PQ1Kn9qAZfhnU3g95h2b1MRPPOnMyzpOYlC+8f1tMOrLVP2sPPD5uDceU+6QrzHX11aatB71OTwGtJ+9nWltg+EFwTl2GSiPuX7nnof1x0rBg5pdS9rWEv+1/R7n2l9Du9o9vdyn6lUd6wPzWlfN9arb4Nb+sckivPWfn1A7wVg0dVQiPNV8lDPHntT00Zg8OkZJBVjGlJXLq7rZy3runVr54H3VF0PlEyxEd/p5A/QrAWDsMvXmaEo917Z5m5TK75+11me1vPB0bNS96kyv61M0TWmfLub1+FiGbLaYo0q13Z6N5Zm9t+zUdOVYvwW6WsjmMny9ufLtea5z5alFJ8ZD7ETuaGxfpt6rX5fyBTSvXbe0Aa31mdHYIlW5KfFmyP6MKcfoLs1RTSnTys6lQ23IvbPqz7dcEFE7EaXAzhW/6gkHn29X8H9JcbRSaErX0ADGAFWqVwWgxhGwctczZWUBK0yZbDdea0qQd/td92eDidpGfa/musQTBtdWTinvsnk2xkkbgwtrX22a4kNugFgqUycv4J/SXTNw0r7nWvtA+VWiw/+fkz2lb8rAROlbj2v6ytrm+TO3fl0NTB1MYmiZqstqJkhqeVvbr7k+hEaV65rFFcpHj1ltM9e0IxdIJ8B45Ann98cJ+/dS98rDofak3tVnLXimTmgtlobk0+jT3R3+OwN61JefKLL3SbV/DO+1aaotyi8/uNV6a6+VvhJ+asvUfMpn6tL/UteKqxayqfXX8t3y1dCbasOcZ6ZrmLRiBwf2i35Bxowuj0Vf3yr6La1x1kI2Pd/s3voAftfKmOKW9+bIktZvfV6b1tJrbR2bjtE/2o6cT8IRvYd97qwFtmvamWqj4cvbIqXX06D0qa7Vd2ro0Ty+/rH8nZrf2s+JDKyuZ4x41Il//O5d7pteqh+VByk6rA7am8J3K19badJ6VMY8BrTPoFPpV7q1r2quh3gCPZxQg51KlcUxs9ff/MOdxu9Km7Z1qC7e0fbncEawyQeQU7Tps1S9ys9cXdqOoWtto9Zbc+37cqieuf+hD1r4x7ozxC8w02/6Di0S176GTyoHc9s5931osb7zOnVu2fa+6mYv65bHp8qzEmYV36Xy0WvM89Bf1m5NbScyfpenKXWvbZvCv9b6bAwvUu1Z72eqT2r0gy7KKvW1tWWIJ4qzFrLZym4a7al0LM9SZSzjmWF5rN9itMyVTe1nlema65yOmSvf1jZL9fMr3o/Tua6ho7GtrFRqfUCbU75A6p2WNkDrr+G75qmlN9WGmmcqN6W6VC94bCxjjmoMbTVtJc9QG2rLWLV8Wy6ISAewihEQmrDssd9nu4uv+m6/6ondam/f/aDFfzg2eqyL78BWCm0suEr16urEGkfAt2s972k7K84YlPuAIpN9rFTzgV7oUyG3vqxNSzxRJV7Ku2xeqSEuOWklXLTm2Z33PLToM/rq8OPO7R5+7Jlkf6kx84M2pbvmyDBtB9faB8qvWjxYPm+crFylb8rAxMpZr1R57fnTggZdxePlQ3WZTdYP1bmevFW5Nsd6iDblo8ds7r1fPP9SvzORXU6037BFygRUzapn5WEOk7n6Wz8fkrVcXYoPH2S2d3TCR48M1yNGvFNv71qq/aN8rrlOyYXqjpKuNRqGUqWvFj9D5fn/tG+8HPq83CuuWsim1l/Dc81TQ2+qDXOemfx7mdKjexSLQ3Wtkt/SGmctZDPHO9X3tTKmxyKBoTmypPUrHmuua+nNtb30fIz+0XakfBImgM644KqF/cH2XHT5Df0uEf5TWkr1Gr683Oh7ngalT3WtvlPDc83j69c2LOtadabqLH+8MSvWPQ2qH5UHPh/3xmPam8J3K19badJ6tJ0e59pnygNPt/ZVzXWJJ5TP2O+Hdz/Y8ycVUCRInvuerba1VJe2P4WzR594ds3pOft/4qT+m9qpY+tL9eoOjVRdKXzknmldNTzXPL4vc3W0fD7XP1b/kLawk8To08VnQ7tGWtoTq7tVqsfTep3aqg7VzV7Wc3WU5EPfU31RWz42iROo0KPMySlOuebkKujWelLX2rYp/FM97Gko3ad0zBRepNq1Xs9Un9Tohynt052Ifr6ntWy2sptD/B/Ls6GyWv2n8qr9WOO3eBqmyqZioyQ7/v+cXZwr36m2sVDZ6lc/Tj/tUFpc6su1e9UnKf1g+TRtaQO0fmtjbVpLr9I+5lrlplSX4tljY0w5Rl9pjmpKmVZ2Lh1qQ+6dVX++5YKIKMNLr7l5p8ndlFBxnMqTz7ww6LS0UmhjwcVEtNGc2lFjk2XkqdnZtSpAZcDImfgM0Kx9qePuoFd5oEayRVuUf63LHkufGuKSQ17CY0ueIUt8I836ietUsNfaq8ZMJy/4n0A9q0opq9RG8usRA9748F0eME9Z3tgYLWPTEl/Hlrfs/Mprz58WdX/tyhsX/e7lA1zosZG+r339enTDlEGfL2/onu852URUqS5/rEqpHal6mdziOFO/MIVJpFR+ezbWHth7y0h1QQorvkp1MKnGN2qRv6FAFfzFMTf9Yd8j0JXmHzns5OwEIXQoDlvgfIyuLfGB/1UOp+CnVIc6ul4OU++2ls2W9iRFb+tnfHsqZWPU/kyxGRvtt7TGWQvZzPWd2tIaW2/laBuRe3s+NtW+HlP/2Hqm5B+jf5SPKVv23Asv958HAO/40DfffneWZ6V6jfdeNvQ9T4PSp7p5Gf7ZFF7XvqPfYtF28L7an5T+Vf3s3/X1G4/pL28rWvraSpPWoz6HlwvtZ99O5UGpjb7NY+85wpQj9VmsqAu0zHfw5WlbS7SpXvDfhKRcLYvPZ+QClz5vql7lNf2NHfW0195vNhus7ZrqH6e+e0hZ+Ivws7T4DBpU3ubYE21Pi2vVmykctq7Dy3qufMWstwP+HdUXteX7MhgjsehFd/6mjhv07yn/vE3yeVP3rfVZC16k6FzWM9VzXten6tQFEW99z4EdOxNT+fTZXfc+1PskyGpqMW8r2WxpN5V+fz2WZ/79ZdzP8VtK9NTK5jJ8vbnynWqbzjnYDnYdA+Fr5I7GTpWnzxTLKV9A89q1tnGuDWitz4zGFqnKTYk3Q/7ZMuaoxtBWy4sxNrS2zI3Ot+WCiExY42BivPh4OwFFgoX2PSscFhxRdsYNBUSs41TYpzgsVs4YcGEYdeVE6qPsesRAjUNtdKxKCu81QMWqAU9bK977crlncA1G+KWCtKl3lvVsjBNa4knp/zFtUMzCJ52QSJWjxtTn1W+E8B1D5DRVBs/YSczRAtY/3vio44jx93Xlyh163pJvQ/W0+k957fkztw6/EjilfzTIqyu7fN0M/BlEWF/O0aG+7NS9fhOttOPoezvuXeyyrcF3qj579vSzv+pYcUk5TOgyiLL/UqnKVs2xk6kyWj3TAZ852ENlP/H08x1HjdHWEo+RTZsMtAkCPUoxNzlo9ev72Atk3/6bko7RtTXlqxy20EO+TnV0qcv/n7pvKZubTS9a2/13rnVl9G57HNxxn+Jd6dlG+S3LwJnK1hTZzPFKMTNmglEHiqXFBbm6ea66tTQZOlTOMv4bo3+Ujym7qf+X+Fyq1/Dl+aXveRq0fvVBluGf+b6gDvxExg18rxg6fZ7ae/UZdNcT7+tq5tQYRfWz8iBVt/E45WsoZlP/+/KGylKa1CZpHR4v2s+UrfWpnmhhg7Xs3DX9e8nVNy38RhYtTdkRqOXrroNUecrTUl8qj3N59QiuqbscoF/lzMugtm/ONX76ld+6rcc7/mDN9yjH1DfWP9YFEnbMnE4Em70aoqGVPcnVMZVnGpSZM3mdo4vnihkv67n3dHFgaYyuY6fa8nP16slhNb6Ztm3KAvrW+kx151xepHg0FWepsnimusvr+tQ7igtsU2nMhu7mxDfy8kvND7SSTbVpc+1mqu32bCzP7L1UCn8IAL78ym/W2NlU3qFnc/yWoXL1v5Js0habx13luTjFiW1a0WNOa+Y9lC96PcZvsPda2oDW+sxobJGq3OT8JKtnyD9bxhzVGNqMxlKqOGs5r9dKZ5ToT/2/5YKINuhr1YHqsMxx4BVcfqDuO06PVeGIB+59Hj/Rz0Q9zobPt8r3KsQpZ4b22MrD0krrse3UHUtzDMjYelP5xzihJTy25JlidshBY8DJAFSPqtXJC9qszgZlnf/165IBAdoH5sljv5Tx0ZWqpVXDKZ77ZyW++vwbfT/FcamlWQeIOf2jjgu7ijlCw5cPFv33muboUF9+6l4xi1PLMYapfKzu1hWwQ/hOve+fab01ZSEPupuzNDDz9bW8x6FFB0I3PGPhDfSl6iCIwneGTTZLk2NaNpNBLB4wnc4KPBz5VD32TB197CaDGvtvSjpG19aUr3LodV7N+6U8JRuZer+lbLa0JylaWz+z/vCrn6+9YfsimD0nQAW9pT5ZBs+sXTW6pZanc2UzV4/a0jGTanrEakkP5eq257pQgUmOmgWD9u4y0zH6R/mYspv6/xCf/ff9UnkNX35sovR6GrR+76O19s98n3zrxh2LhaHIxAc+ckz3zHMvTrIN1g4wxzFTVhfywQJUs4upleqqCzwPrBxLjccpGa71H2p8baVJbZLW4TGg/QydRjNpaxusZQ9dQzu84uexZ+9pW4f4z3j5M8eds+hL7IGVYan2T64s/CLoQk6MtlxenRRjbIRfbXWNSZdhT7R+cL7vwScs2jNX92rZdq3YS+Hf8lkKn3UhNf6x6XToS8mivWtpS3tiZVo6h2e+bXN0l9HjU9Np8NrLus+r9yoDuTEJ3zdU/I8pX+uya9U93v5YHk11x4oFmPX/0nVrfab0z+WFp30OznxZdq860+t6y+NTsGD6roRXxmi2CDy3waGVbNbqlRq76dus91N4pu/bNbr8cydf1I9F0GMnnPH1Dttk/49JTcan+C219Si2c7LZ2tezdoG3nN2vpV/zKYaxLSwYg3fUM3Q0tpaRuladmfMF/HstbUBrfeZpnXOvcjPEm5J/hh5sPUdVS9uY9tOvref10HFsiDP9O3S8/xhaa/NuuSCiCTRBp+/e9qPsZGgtA1spNDV2OWUMTazYYxW9ASYXbCEvE+G00/JyBAwKJdU26v/JA48lV3Om8s95xgoZHL2h1Yz8T/DHaE/tdoIGnfxj0v/q62/PGl0EGP59/477iu3UlY7QwKpRb8wpjwAu7ZnDj9K7aqhLTmgNHlvxzB/3+OnjzulX+Wt74M+2I09f9KP1p05eWH4dVONk6m4teK2Dc1YkWlkp44NRsQke8h10+Gnd4z9/LttPrKaj/twOlBq+WjtWITU9R9tT/JlCIzqC1d8WXMPBygWUvFHHCdOJWtVj6DsLMLd0CnNtVGeR3YHa5zqYoH3veN+2Bc5SmEUGOF5raNUg2OWbPjZwqllNC+3qxPAu+tm3ab30Nrs5zKGmr1gU4PU3+pF+tnzQ/OAjT+1Es2+DTf6A1c9+4YLFSQE48vDO59d7/tfvfhHUxu552uwdntPfqb4kzxhda2UOpSqHuTqH3i/9pxihrlJ+/m8tm63sSQ3ttXnwH7bf+dM1C6fUxzJeoZNYSIAOAn9gNzWBTL2r7LcsC2dzZDPXV2pLS/6MloGu1d076CHsEf2q+eyab2/l9I8uxKPPjz3lq4O71ZjcAU/gyspfRjpG/ygfU3ZTV6LTRnxj1afowlu239PvFgf79kv1ieHLj02UXk+D0ud9kNb+mfaFHuNlbSJN7XjQ97hGR2Mf1H7wjPe17YyjGE9Z+fiatMmXp/rZ88DnNR5TprcVLX1tpUnrUf3oMaD9bLrT6G9tg1/41Ssdpxmov2h1WYo86mRMahcoebWtOf7jt5x54TULvyW36M12sdM/H/748TvpAnTDcaddvCjHsJGrV/lNXvCFLUq1Gx4PjTWXaYPtCHBrD2nphAnrp2X6x7rzcL+DT+z++WNvBPRrF/22tCfWXkvn8IwyVHfCb76vzjhD9bfVBV5YfJezg5ZPUy3fy7rm89faLh8sQmfy6QYbHxpecuUjd7RpiG4r08aH9DH63dOl916umH9goYzm4TrnH7TWZ6o7c7zwtNXea38Yv2tlM1eH6kyv63PvoPtsEh86mKNkjO/z0992Ig/5Tjnnig459PlaySblMKY03sydo/J02v0Untm7murcBDTjt9UsiGjtt7SUzda+nuou73MqL8dea7ANjNonkZjHIKg9tjzLr35dzhewvJpqO8HCVBvQWp8pjXOvVW5yvKn1z1rPUdXQNqX9Wm6LeT3dhWl6jnH7FNqmvLPlgojagTD8Le/+aPePex/e//Y84Jj+nHx2UvBj0O0HlJ7JKuhzFJp3fHCacH6YpOdoVZyzo068YDHZDu2liDPOJUYaQ2Tg4nr3fY5YtPOYk77Sr0TjONc59Hu+DN1bH1Dn33/wk93hx5/X8xuen/jlS9ccLwvduQE6daBgGLhZ+0jh3f6HnrQoEyVO35pzW9NOFC8BWi2X941WUgsw6EB8qN1T/xvjhNbgsSXPdJURvEIpgil4/g97vfGNQ56Duzf/9T4LfqZ4hgwccvSXF3kMk2BCP7SOg4psWt+ApxRvGVjZ5LDlfeeeh/X0mYyzI4WjF01GUnRRdg1fUzQs+xmO+unnX73AurXrvf//6EzazQDbnluqK+qNRgJhHDNieSxNyST8Ousr1yYnPKw8NerQQR9SFvJnx0fTPwyEGFyRp0Y2rfypqR/woC+YEASzdgwntLC6R49dSWFD9Tb6wdsQZAHMUZ79CHqlJgN8e/geL/rR3oPnlA8P+X3owON6XbcePGPSTo+dhSZsp+pD06/8B09vuPXOpFz6duqqU2sri190EYF/R+/Z5fp/PvnFBZ8oA1qg1zBMPyAT0MX/9LWWYddjdK29M5RSj7UphZ+hd/W/nGwi21Y+7bP2WorfoOXYdUvZbGlPjL65qeprcMqkL36C7WLf+6Dje3woZuEjfEtN4kLPKvstrXDm+T5XNsGfYdHSIz5/3mJxGyvRCQbYf6To3NyiDHaT6eIg+sz7e8i9+WY534B2Xn/LnQt9QDnoV/WNoYVdqVaWBpE8n1rdj9E/ivGUDWACTb85q/YDva3YR9/agsPURKfhy/NA6fU0KH2pfmjpnyn/lSbTjaQ13/O1durYxHxSjvADu2AEXlrZ+Ly5HfCmM8ib4oHSbXWTN2UrWvnaSpPWo76Mx4DyFDqVbq5b2mBoggfwGH9M7TgyydjO7Dj5cqdhQJe21fBPwBBe8sN3Vp+PssCtbx/3GrSiXuQHOcIXwy9TTIAV8vAb6nfqMptk+b3vgg7ChvG/9pfSuEwbrDw0Gmu/faaYol0t/WPazLGlRpOluYCy8suuW9oTK5N0Ds94n/EBPpqNk6xtOn5FDt+//9G9LHh5VVpa2mCdaIcmkwFo0fE+AUY7USRHm+oU89GQJfMFkC3DPXUhX7kFXtpergnGqzyiL5hPo2zGAtDK/znZbKnPtJ05Xnj6a+/n4Kz1mEJPKKK/wC6+mo1XvY7EX/jlSzufUGRtbyWbrewmdLXmmbXVUvUBTOZzGLV3SO29Vn6LYraFbLb09dSv9D6n8mTsNTpXd7cb/1NHm6fKbjkXR/ktbUBLfZZq+9Rnqr/Qx+iIqf5Z6zkqpa1GBmt50HpeLxVE9J9rqaVtSr4tF0QEaP4IPVMWuZTJb463TDG4lUJTZztHhz3HUOAo806KJn3GhNhl19yyZsLAyvFpS4WsNPhrFU5Pg79ncri0+hs+wA/vcPuy7J5B6auvlXkHVnSbsL3v09zAzrd76r0a9JITWovHVjxLBao9fxhoXPXt27qLr/ruYsCX41nKcdTy6DtWKttEA/8NKfgf3/fImgCkluWvMWKp4Br9VsvXqX089T2ly7dn6D7FM8XZ0LtMutx8+93FQFgJG0ye3HXvw2t2f62XDoJvfvLG2gwOOOIOGVFdlcIseaDZ3h1K0U9MkOeCFCkM+KOBUuWvF8/Qh3bUSooOe/b23Q/qd+3UBEpps18tSjljj5REJxx5wvlrJg6MnlSam1BWGSjp2lR/+Wc2uIOGFH58/ty90pVqT+4Z9afKbC2brexJitYpz8bqRWwUC7aYmMzVp7ogx297vt5+Syuc+bbPlU2ly3hTSktyN0bWU3bO2oh+wo6hr0o08X/txLmVPyVVOS/xQTGeswElf4p2Mb7BDpsdS9Vr/dgyiAh/WvlnymsfPKWNTCLX6F9rZw0eyMOuNXaIaf16rTpjCIu8o3WnaC3pbOip8bWVJq1HfRmPAcUldGob7XqMXEJrzgZDUy3/wW5utzF0aVtLZdKXTzz1fLJtlJWb1NNy8fHOvujaXq/Y81K/Uyd1W/6hVPvL+G7psmywD55CH4F16rO6c6liaqhd/DfFP+bIOS03dzxijj6ej8FtqS+tnjk8szLG2Ccvr1YGqeoV5dXQ9VB5Pljky7ExutWbK0t1ii/D36PX/E56baO/RleyyJWxnC9L74f6cwwuKDOnz7SdOV54+mvv5+BM6VKelK5z+h+amT8p+VP0CfNqqd2hvt1j+iDXl63sJrQtg2faZh/wZGEXJ+tontS1yVqp7+z/kt8ypp21stnK16vxe1M8qnlGsFMXAIFV+qTmXaXL+FyT5nBLna1sAGWNkSXozumzGl7U5qHtNTwiT8k/o86Wc1RK21Af1bZV87Wc10O/+ThFazujtPvrLRdEZJJIjy5hlbHtRCRl50cqGMVq09RgRRVHbiDvmZ66V2cbxQVdSgfXDJjOu+S6/hiGVBlDz1iJwMo2VuSj9E1wueYZE2gc7zBURqv/ONKAPqBeAhLq6NFOBOCLZ1/RB25QorX1Qj/8sdV52kZWOLDqlBXDelRRqWzyIvCseNRVcVyz3Z1dokMTj6Xya/5Xg15SDmPx2IJnxqOPfuqUxQph+pFVaGAO7NFOVcpDg2EMAcEW28FFWaysYPBifacTDSUFj5IlP31ouwrABrizlc6s1jQ6U30ylq+pMpbxTOkyvNekKZ4pzrQMk0kc1XsfeGxUEIz+4sg0sEA5lMsqULbb08/wROudo0PH8pfFCSededlCrplo/MQxZ3Z3//SRRYC0hFkmLDkemd00HIGhOoK2qn6lnWNpNP6g19D/xkPrE3Y1srJpSrlT3kEfM2mKfrbVvNZOAn+sAK6ZXPJ1+8ETx7r4PKV7pQ09abyCPltNyZFkTNrl7IpisaRrS/Twvw7uhnReqSyli/bU/oYG/MuQzRb2pMSLmv+xyT/40c8WfobqfeMdz5jwKul+q2+V/ZZWOLO2ajpHNpUu43sprZG7IVmnX7H1+GY1uog86C3d8QON6A/GAxyHVVuW8m3Ktcp5iQ9q+4fsJnYW/1530GGX4BE6Cf9Ixx+peq0fWwcR4VEL/8zzmglKdmHSh4zdrrl+e1bn67vYUiar2QXDN3l1xxuY4J7xRe1YQv2HlM+ldRuPqSdnK1r42kqT1jOEAcUldCrdej0kl7U2mE9J4B8ij348bj47i5lYgW3jAaVBr7Wt1K9jX/iMrqAsjoovlUW5tI8xJMfiWVnQhGzp2By+Uj6/Ur9TLnVDA7TomFjby5H4yIq2L3Xd2gbTZo5yhi7kadsRpxcX9hpdy/aP/c44dNqU8fgQbsfaE9o+h2fGO0tz9sl0EWPlIZ9W9YphspSmbIDRQ8oYQGUAWhj/M1dicmT15sqin66/+Ye9rmXuzeTJaENe0QH4ZzZWVBpK1yaryBR9aOVSD3NPnIBTKncIF7X6THVnjheltuT+n4Mzpct4U5MO6X/oVLxan6LHGC8ybgQ70J1rk38+1Ae1sgkmwebcOapl8czajH7/2jdu7P2Mv3zXAR3jYJMny5NKW/sty5LNFr5erd+b4lPpGfoAnWNyUHs0NuUqXfZ+TVrjH6hMoXes3FobYO0ekqVafWZltUhb+2fQpG2cM0eltNX00Vh+oEtazeuxC1aPiW5tZ4batqUOPOIaAAAF8ElEQVSCiDi0HO9pAkikPedw8o00VoDg3Fj+McdkDDE99Z8O4PxAPZU/nv1HtRMSvApeBQbKGMBZ5XsTNRMVwc8yP4NHwaPAwOpgwCZ2w79anT4J+Yi+WGUM6LisNHm6yu3YqrQteyJoq/I12h16OzAQGAgMrCYGwm9ZzX4JeVnbL+GfreXHVHwQONVvhA8tKp1aR+69LRVE1JUCtSsM9MPFy+wYVfoxydVGsHKgj+fB38BAYCAwEBgIDGwdDNiAZT1X6QW+tg6+oq93vb7WnQfLWI0cmFkuZkznsxA4+m+5vA4sB38DA4GBwMDGYyD8lo3vg5CDch+Ef1bmUQ2O/A5aTvKoea9Fni0VRLSV6AwoagOCHH9mOxH5ThYR3xaM92VEELGNMHm+xn3wNTAQGAgMBAYCA1sbA5w8Mcb3C7xsbbxE/0f/P/To0/23MNEbevRnYGNzYCMmqTZHP4U8RT8FBgIDgYE2GAi/pQ0fA4/L5WP4Z/P5y2maBA05MppxCp9b4Ej79cLulgoi8tFfYzTfyeAbBDlGEyzkGwTko2N4r/YDq7kyh55HEHG+MA3xN/4L/gYGAgOBgcBAYGDrYYDj6T917Nm9L8exH8taDBbY2nrYij7fdfuc7+796V/t2fF9ogcefjI7XgwMrCYGYpJqNfsl5CX6JTAQGAgMLAcD4bcsh6+B17Z8Df9sGj/55vv3dtzbf5udb1UTo+LHKZZ8+3U9cbqlgogvvPjrbq8Dj10wnI+E/8shX+jO+eo3+wDhrTvu6dMzL7ym2/OAYxYBRzrn5LMuX+q3wlYtiPjyK7/p+GA37W7xe/CRp9YV2OspRFZX8GyaQjT+RRr8CwwEBgIDgYHAQGBglTEQvl7gc5XxGbS9gc+YpAo5DVkIDAQGAgOBgcBAYGAaBtiA1SIOQBmXXXNLx6Je+iL8s2n9oZ/mswDiHvt9dkMWOm6pICKgfezJZzu+h2iML6V/vtt+3aXX3NyxZXSZCmjVgoh6pnaJRzX/b4WjgIJn0xTiMuUqyo4+CQwEBgIDgYHAQGCgFQbC1wsstcJSlLM8LMUk1fJ4G7gN3gYGAgOBgcBAYGDXxoD6UTXz/UN59FNyWi7XgaM6HFkQ8R3v29YdesxZ/acWfvv67zeEf1suiAhIX//dH/qjTI//0iXde/c9qnvT2/ZeE1SkY7YddUZ33U13dC++/Oq6dEwEEeuEZ5WVTEwsbf4+XGV8BW2Br8BAYCAwEBgIDGwsBsLX21j+B/6D/zUYiEmqwEkNTiJP4CQwEBgIDAQGAgM7Y0D9qKEAYc1/EUTcmb+bGXNbMoi4mTssaN+1BDD6M/ozMBAYCAwEBgIDgYHAQGAgMBAYCAwEBgIDgYHAQGAgMBAYCAwEBgIDgYFVxEAEEf89gLmKwAyaApeBgcBAYCAwEBgIDAQGAgOBgcBAYCAwEBgIDAQGAgOBgcBAYCAwEBgIDAQGNg4DEUSMIOK6HNcaQr5xQh68D94HBgIDgYHAQGAgMBAYCAwEBgIDgYHAQGAgMBAYCAwEBgIDgYHAQGAgMDAWAxFEjCBiBBEDA4GBwEBgIDAQGAgMBAYCA4GBwEBgIDAQGAgMBAYCA4GBwEBgIDAQGAgMBAYCA2swEEHEAMQaQIyNQkf+WLkQGAgMBAYCA4GBwEBgIDAQGAgMBAYCA4GBwEBgIDAQGAgMBAYCA4GBwEBgYNfDQAQRI4gYQcTAQGAgMBAYCAwEBgIDgYHAQGAgMBAYCAwEBgIDgYHAQGAgMBAYCAwEBgIDgYHAwBoMRBAxALEGELFSYNdbKRB9Gn0aGAgMBAYCA4GBwEBgIDAQGAgMBAYCA4GBwEBgIDAQGAgMBAYCA4GBwMBYDEQQMYKIEUQMDAQGAgOBgcBAYCAwEBgIDAQGAgOBgcBAYCAwEBgIDAQGAgOBgcBAYCAwEBgIDKzBQAQRAxBrADE2Ch35Y+VCYCAwEBgIDAQGAgOBgcBAYCAwEBgIDAQGAgOBgcBAYCAwEBgIDAQGAgOBgV0PAz6I+P8AT8470rwRCkEAAAAASUVORK5CYII=;" vertex="1" parent="1">
          <mxGeometry x="160.79" y="780" width="474.49" height="48" as="geometry" />
        </mxCell>
        <mxCell id="SuCCwU2PgJYkHePNsg9u-23" value="Platform Team" style="shape=image;html=1;verticalAlign=top;verticalLabelPosition=bottom;labelBackgroundColor=#ffffff;imageAspect=0;aspect=fixed;image=https://cdn2.iconfinder.com/data/icons/essential-web-1-1/50/group-customers-team-contacts-family-128.png" vertex="1" parent="1">
          <mxGeometry x="341.28" y="410" width="48" height="48" as="geometry" />
        </mxCell>
        <mxCell id="SuCCwU2PgJYkHePNsg9u-24" value="Delivery team" style="shape=image;html=1;verticalAlign=top;verticalLabelPosition=bottom;labelBackgroundColor=#ffffff;imageAspect=0;aspect=fixed;image=https://cdn2.iconfinder.com/data/icons/essential-web-1-1/50/group-customers-team-contacts-family-128.png" vertex="1" parent="1">
          <mxGeometry x="626.28" y="420" width="48" height="48" as="geometry" />
        </mxCell>
      </root>
    </mxGraphModel>
  </diagram>
</mxfile>
